<!DOCTYPE svg PUBLIC "-//W3C//DTD SVG 1.1//EN" "http://www.w3.org/Graphics/SVG/1.1/DTD/svg11.dtd">
<!-- Uploaded to: SVG Repo, www.svgrepo.com, Transformed by: SVG Repo Mixer Tools -->
<svg fill="#000000" width="800px" height="800px" viewBox="0 0 24 24" id="microphone-stand" data-name="Flat Line" xmlns="http://www.w3.org/2000/svg" class="icon flat-line">
<g id="SVGRepo_bgCarrier" stroke-width="0"/>
<g id="SVGRepo_tracerCarrier" stroke-linecap="round" stroke-linejoin="round"/>
<g id="SVGRepo_iconCarrier">
<path id="secondary" d="M15.28,10.65,6.62,15.78a1,1,0,0,1-1.34-.3L4.09,13.73a1,1,0,0,1,.23-1.35l8-6.12Z" style="fill: #D43F8B; stroke-width: 2;"/>
<path id="primary" d="M12,13v8m2,0H10m5.28-10.35L6.62,15.78a1,1,0,0,1-1.34-.3L4.09,13.73a1,1,0,0,1,.23-1.35l8-6.12Zm4.11-5.89a4,4,0,0,0-5.55-1.08A4,4,0,0,0,12.2,6.07l3.28,4.87a4,4,0,0,0,2.83-.62A4,4,0,0,0,19.39,4.76Zm-7.82.38L16,11.77" style="fill: none; stroke: #2D3748; stroke-linecap: round; stroke-linejoin: round; stroke-width: 2;"/>
</g>
</svg>