<svg xmlns="http://www.w3.org/2000/svg" width="352" height="64" fill="none"><path fill="#000" d="M93.411 39.44h7.643c-1.632 6.828-7.099 10.976-14.388 10.976-9.044 0-15.15-6.392-15.15-15.844 0-9.425 6.038-15.776 14.986-15.776 8.854 0 14.688 6.229 14.688 15.735 0 .721-.027 1.455-.108 2.217H79.39c.516 4.488 3.264 7.154 7.507 7.154 3.182 0 5.317-1.496 6.514-4.461Zm-13.94-7.724h13.9c-.68-4.284-3.006-6.514-6.828-6.514-3.89 0-6.405 2.366-7.072 6.514Zm44.348-12.104h8.377L122.105 49.6h-11.288l-9.982-29.988h8.568l7.167 24.793 7.249-24.793Zm29.836 19.828h7.643c-1.632 6.828-7.099 10.976-14.389 10.976-9.044 0-15.15-6.392-15.15-15.844 0-9.425 6.038-15.776 14.987-15.776 8.854 0 14.688 6.229 14.688 15.735 0 .721-.027 1.455-.109 2.217h-21.692c.517 4.488 3.264 7.154 7.508 7.154 3.182 0 5.317-1.496 6.514-4.461Zm-13.94-7.724h13.899c-.68-4.284-3.005-6.514-6.827-6.514-3.89 0-6.406 2.366-7.072 6.514Zm32.744 2.149V49.6h-8.146V19.612h8.146v9.017c1.265-6.351 4.978-9.833 10.54-9.833 6.46 0 9.955 4.706 9.955 13.382V49.6h-8.146V33.538c0-5.113-1.918-7.656-5.821-7.656-4.162 0-6.528 2.828-6.528 7.983Zm43.004 15.504c-2.53.693-4.76 1.033-6.719 1.033-6.596 0-10.05-3.903-10.05-11.532V26.086h-3.754v-6.474h3.754v-6.909h8.146v6.909h8.623v6.474h-8.623v12.797c0 3.441 1.211 4.964 3.985 4.964 1.115 0 2.598-.245 4.638-.761v6.283Zm11.13-15.504V49.6h-8.146V19.612h8.146v8.826c1.238-6.242 4.733-9.642 9.983-9.642 5.413 0 8.581 3.631 9.275 10.458 1.088-6.732 4.665-10.458 10.159-10.458 6.147 0 9.452 4.72 9.452 13.382V49.6h-8.146V33.538c0-5.113-1.755-7.643-5.331-7.643-3.795 0-5.957 2.829-5.957 7.97V49.6h-8.147V33.538c0-5.113-1.754-7.643-5.331-7.643-3.794 0-5.957 2.829-5.957 7.97Zm42.285-3.265c0-7.262 5.508-11.804 14.416-11.804 9.152 0 14.565 4.814 14.565 13.015V49.6h-8.146v-7.67c-1.347 5.25-5.644 8.486-11.506 8.486-6.133 0-10.213-3.536-10.213-8.854 0-5.684 4.637-9.057 12.457-9.057h9.262v-.694c0-4.12-2.435-6.596-6.61-6.596-4.202 0-6.106 2.067-6.106 5.386h-8.119Zm20.835 6.855h-8.419c-3.372 0-5.154 1.156-5.154 3.36 0 2.257 1.904 3.535 5.277 3.535 4.773 0 8.296-2.556 8.296-6.01v-.885Zm30.672 11.914c-2.53.693-4.76 1.033-6.719 1.033-6.596 0-10.05-3.903-10.05-11.532V26.086h-3.754v-6.474h3.754v-6.909h8.146v6.909h8.623v6.474h-8.623v12.797c0 3.441 1.211 4.964 3.985 4.964 1.115 0 2.598-.245 4.638-.761v6.283Zm23.192-9.929h7.643c-1.632 6.828-7.099 10.976-14.389 10.976-9.044 0-15.15-6.392-15.15-15.844 0-9.425 6.038-15.776 14.987-15.776 8.854 0 14.688 6.229 14.688 15.735 0 .721-.027 1.455-.109 2.217h-21.692c.517 4.488 3.264 7.154 7.507 7.154 3.183 0 5.318-1.496 6.515-4.461Zm-13.94-7.724h13.899c-.68-4.284-3.006-6.514-6.827-6.514-3.89 0-6.406 2.366-7.072 6.514Z"/><path fill="#000" fill-rule="evenodd" d="m31.052 2.221.007.007c1.73 1.668 2.727 4.092 2.71 6.504l-.001.016c-.053 2.698-.28 5.9-.533 8.724a8.176 8.176 0 0 1 2.279-.323c1.97 0 3.85.71 5.323 1.957a8.24 8.24 0 0 1 5.323-1.957 8.18 8.18 0 0 1 5.833 2.427A8.178 8.178 0 0 1 54.4 25.41v16.104c0 6.286-2.351 11.777-6.826 15.819l-.203.18c-4.306 3.807-10.233 5.94-16.667 6.087h.012c-.279.016-.55.015-.778.015-.512 0-2.236-.053-2.614-.068l.019.001c-3.794-.096-8.719-.207-13.391-2.158l.03.01c-5.215-1.92-9.144-4.898-11.521-8.916-2.495-4.19-2.645-8.465-2.352-11.28V41.2c.284-2.682 1.269-4.966 3.012-6.886C3.02 26.149 2.081 18.852.24 10.86l.002.01C-.792 6.53 1.72 1.927 5.952.623L5.96.62h.01c2.05-.603 4.226-.347 6.115.722l.009.005c2.026 1.168 3.563 3.201 4.167 5.48.326 1.287.616 2.584.912 3.878.026-.71.045-1.424.057-2.142C17.291 4.105 20.84.25 25.246.01h.012c2.148-.1 4.203.702 5.794 2.212ZM25.565 4.24l-.127.003-.11.008c-2.031.178-3.79 2.026-3.874 4.243l-.003.124v.012c-.118 6.12-.674 12-1.702 17.928 1.998.433 3.661 1.712 4.865 3.332 1.735 2.338 2.367 5.133 1.698 7.845-1.053 4.089-4.554 6.946-8.213 8.708a2.132 2.132 0 0 1-1.663.066 2.176 2.176 0 0 1-1.095-.943c-.285-.534-.361-1.14-.16-1.718.172-.498.542-.97 1.088-1.233 3.474-1.666 5.43-3.817 5.945-5.889l-.003.01c.368-1.526-.06-3.05-.986-4.29-1.117-1.5-2.229-1.845-3.268-1.79-1.173.063-2.445.65-3.742 1.429l-.006.003c-3.99 2.37-9.244 4.173-9.857 9.454 0 .038-.002.076-.006.115-.178 1.703-.167 4.62 1.245 7.6 1.392 2.938 4.21 6.08 9.91 8.187l.02.006a.84.84 0 0 1 .028.009l.089.03c.029.01.057.02.086.032 3.792 1.554 7.882 1.695 11.427 1.777l.294.007.042.002a44.56 44.56 0 0 0 3.058.066l.043-.001c11.721-.283 19.575-7.702 19.575-17.842l-.01-4.538a8.258 8.258 0 0 1-4.015 1.055c-1.97 0-3.85-.71-5.323-1.956a8.244 8.244 0 0 1-5.323 1.956c-1.854 0-3.467-.94-4.639-1.852-1.183-.921-2.13-1.994-2.56-2.438-.36-.373-.971-1.27-.787-2.426 1.002-6.266 1.83-16.24 1.966-22.31l.007-.348c.012-1.273-.525-2.557-1.404-3.405l.005.004c-.727-.684-1.624-1.035-2.515-1.032Zm20.58 17.162a4.02 4.02 0 0 0-2.877 1.228c.324.896.486 1.831.486 2.79v4.395a8.3 8.3 0 0 1-.479 2.789 3.965 3.965 0 0 0 2.874 1.228c2.198 0 3.999-1.8 3.999-4.017V25.47c0-.146 0-.233-.006-.313l-.003-.04-.002-.021-.01-.117a4.021 4.021 0 0 0-3.982-3.579Zm-10.654-.007a3.96 3.96 0 0 0-2.694 1.065l-.104.098-.002.02c-.345 3.05-.715 5.888-1.081 8.274a4.036 4.036 0 0 0 3.882 2.98c2.2 0 4.002-1.8 4.002-4.017V25.41c0-2.216-1.801-4.017-4.002-4.017ZM8.172 4.556c-.33 0-.666.048-.994.144l.011-.004c-1.987.611-3.3 2.858-2.833 5.094l.028.124.002.01c1.632 7.06 2.587 14.01 2.89 21.16.8-.477 1.63-.926 2.478-1.377a53.674 53.674 0 0 0 2.268-1.26c.576-.352 1.742-1.072 3.22-1.556-.213-6.692-1.519-12.257-2.698-17.296-.124-.528-.255-1.055-.376-1.585a4.812 4.812 0 0 0-2.074-2.888L9.97 5.05a3.605 3.605 0 0 0-1.8-.493Z" clip-rule="evenodd"/></svg>