<svg version="1.2" xmlns="http://www.w3.org/2000/svg" viewBox="0 0 838 683" width="838" height="683">
	<style>
		.s0 { fill: #f1f1f1 } 
		.s1 { fill: #ffffff } 
		.s2 { fill: #e6e6e6 } 
		.s3 { fill: #d53f8c } 
		.s4 { fill: #e72d8d } 
		.s5 { fill: #284b95 } 
		.s6 { fill: #ed9c9f } 
		.s7 { fill: #e4e4e4 } 
		.s8 { fill: #2f2e41 } 
		.s9 { fill: #a0616a } 
		.s10 { opacity: .1;fill: #000000 } 
		.s11 { fill: #cacaca } 
	</style>
	<path class="s0" d="m505.12 631.58c12.12 8.12 25.93 49.18 25.93 49.18 0 0-43.23 2.81-55.35-5.3-5.82-3.9-9.85-9.96-11.21-16.83-1.36-6.87 0.07-14.01 3.97-19.83 3.9-5.82 9.96-9.85 16.83-11.2 6.88-1.36 14.01 0.07 19.83 3.98z"/>
	<path class="s1" d="m531.54 680.45l-0.68 0.54c-24.7-30.99-61.97-41.69-62.35-41.8l0.23-0.83c0.38 0.1 37.92 10.87 62.8 42.09z"/>
	<path class="s0" d="m569.93 615.2c-0.77 20.17-39.13 66.25-39.13 66.25 0 0-34.7-48.89-33.92-69.06 0.37-9.69 4.57-18.83 11.69-25.42 7.11-6.59 16.55-10.08 26.24-9.71 9.69 0.38 18.83 4.58 25.42 11.7 6.58 7.11 10.08 16.55 9.7 26.24z"/>
	<path class="s1" d="m531.53 681.81l-1.13-0.41c18.58-51.6 4.13-103.29 3.99-103.81l1.15-0.33c0.15 0.52 14.7 52.57-4.01 104.55z"/>
	<path class="s2" d="m432.21 500.39h-328.74c-2.9 0-5.77-0.58-8.45-1.69-2.68-1.11-5.11-2.74-7.16-4.79-2.05-2.05-3.68-4.48-4.79-7.16-1.11-2.68-1.69-5.55-1.69-8.45v-375.68c0-2.9 0.58-5.77 1.69-8.45 1.11-2.68 2.74-5.11 4.79-7.16 2.05-2.06 4.48-3.68 7.16-4.79 2.68-1.12 5.55-1.69 8.45-1.69h328.74c2.9 0 5.77 0.57 8.45 1.69 2.67 1.11 5.11 2.73 7.16 4.79 2.05 2.05 3.68 4.48 4.79 7.16 1.11 2.68 1.68 5.55 1.69 8.45v375.68c-0.01 2.9-0.58 5.77-1.69 8.45-1.11 2.68-2.74 5.11-4.79 7.16-2.05 2.05-4.49 3.68-7.16 4.79-2.68 1.11-5.55 1.69-8.45 1.69z"/>
	<path class="s1" d="m416.85 481.98h-298.02c-2.57 0-5.12-0.51-7.5-1.5-2.38-0.99-4.54-2.43-6.36-4.25-1.82-1.82-3.27-3.98-4.25-6.36-0.99-2.38-1.5-4.93-1.5-7.51v-343.81c0-2.57 0.51-5.12 1.5-7.5 0.98-2.38 2.43-4.54 4.25-6.36 1.82-1.82 3.98-3.27 6.36-4.25 2.38-0.99 4.93-1.5 7.5-1.5h298.02c2.57 0 5.12 0.51 7.5 1.5 2.38 0.98 4.54 2.43 6.36 4.25 1.82 1.82 3.26 3.98 4.25 6.36 0.99 2.38 1.5 4.93 1.5 7.5v343.81c0 2.58-0.51 5.13-1.5 7.51-0.99 2.38-2.43 4.54-4.25 6.36-1.82 1.82-3.98 3.26-6.36 4.25-2.38 0.99-4.93 1.5-7.5 1.5z"/>
	<path class="s3" d="m386.82 464.62h-65.17c-1.3 0-2.55-0.51-3.47-1.43-0.92-0.92-1.43-2.17-1.43-3.47 0-1.3 0.51-2.55 1.43-3.47 0.92-0.92 2.17-1.43 3.47-1.43h65.17c1.3 0 2.55 0.51 3.47 1.43 0.92 0.92 1.43 2.17 1.43 3.47 0 1.3-0.51 2.55-1.43 3.47-0.92 0.92-2.17 1.43-3.47 1.43z"/>
	<path id="VibeZurich" class="s4" aria-label="VibeZurich"  d="m153.9 163.3q-3 0-4.8-1.1-1.9-1.1-2.7-3.4-0.8-2.4-0.8-6.3 0-3.1 0-6 0.1-2.8-0.1-5.3-0.2-2.5-0.8-4.4-0.6-2-1.9-3.4 2.5-1.9 5.3-1.9 2 0 3.4 1.2 1.4 1.2 2.1 4.2 0.7 2.9 0.7 8.1 0 2.1 0 4 0 1.9 0 3.5-0.1 1.5-0.1 2.8-0.1 1.3-0.1 2.3h0.5q3.1-4.9 5.1-8.9 2-4 3-6.9 0.9-2.9 0.9-4.5 0-1-0.2-2-0.2-1-0.7-1.9 1.2-0.9 2.9-1.4 1.6-0.5 3-0.5 2 0 2.9 1.1 1 1 1 3 0 1.3-0.4 3-0.4 1.6-1.3 4.1-1 2.4-2.7 5.9-1.6 3.4-4.1 8.4l0.6 2.3q-1.3 1.1-3.1 2.1-1.8 0.9-3.8 1.4-2 0.5-3.8 0.5zm25.8-0.2q-2.7 0-3.8-1.4-1.2-1.3-1.2-3.9 0-0.9 0.3-2.5 0.2-1.7 0.7-3.7 0.4-2.1 0.8-4.2 0.5-2.1 0.9-3.9l-2.3-3.6q1.9-1.3 4-2.2 2.2-0.9 4.2-0.9 1.8 0 2.5 0.8 0.7 0.7 0.7 2.3 0 0.5-0.3 1.6-0.2 1.1-0.6 2.6-0.3 1.5-0.7 3.2-0.3 1.7-0.7 3.5-0.4 1.8-0.6 3.4-0.2 1.6-0.2 3 0 1.2 0.3 2.2 0.3 1 1 1.6-2.4 2.1-5 2.1zm2.5-28.6q-1.9 0-3.2-0.9-1.2-1-1.2-2.6 0-1.6 0.9-2.6 0.9-1 2.2-1.5 1.3-0.5 2.5-0.5 2 0 3.2 0.9 1.3 1 1.3 2.6 0 1.4-0.8 2.4-0.8 1.1-2.1 1.6-1.3 0.6-2.8 0.6zm17.8 28.6q-3 0-4.8-0.9-1.8-1-2.5-2.7-0.8-1.7-0.8-4.2 0-0.9 0.2-2.1 0.1-1.3 0.4-3.5 0.4-2.1 0.9-5.5 0.6-3.3 1.4-8.3l-2.3-3.3q1.7-1.3 3.8-2.2 2.1-0.9 4-0.9 2 0 2.8 0.7 0.8 0.7 0.8 2.3 0 1.6-0.7 4.3-0.6 2.8-1.4 6.2l0.4 0.2q1.2-3 3.5-4.7 2.2-1.7 4.9-1.7 2.4 0 4.2 1.2 1.8 1.2 2.7 3.5 1 2.2 1 5.2 0 3.6-1.4 6.6-1.3 3-3.7 5.2-2.5 2.2-5.9 3.4-3.3 1.2-7.5 1.2zm-0.7-4.4q2.3-0.2 4.2-1.1 2-0.9 3.5-2.3 1.5-1.4 2.3-3.2 0.9-1.8 0.9-3.8 0-2.1-0.9-3.1-0.9-1.2-2.4-1.2-1.6 0-2.9 1.1-1.4 1-2.4 2.9-1.1 1.9-1.7 4.7-0.6 2.7-0.6 6zm33.6 4.4q-5.2 0-8.2-2.8-2.9-2.8-2.9-7.7 0-3.5 1.2-6.3 1.3-2.9 3.5-5 2.2-2.1 5.3-3.3 3-1.2 6.6-1.2 3.8 0 5.9 1.6 2.2 1.6 2.2 4.5 0 3-2.1 5.1-2.1 2.2-5.9 3.2-3.8 1.1-9.2 1.1l0.6-3.2q4.5-0.2 6.9-1.6 2.4-1.4 2.4-3.7 0-1-0.6-1.5-0.7-0.6-1.7-0.6-1.3 0-2.5 0.9-1.3 0.9-2.2 2.4-1 1.6-1.5 3.6-0.6 1.9-0.6 4 0 2.9 1 4.5 1 1.6 2.8 1.6 2.1 0 3.5-1.5 1.4-1.6 1.5-4.2 2.5 0 3.8 0.9 1.3 1 1.3 2.7 0 1.8-1.4 3.3-1.5 1.4-4 2.3-2.6 0.9-5.7 0.9zm41.4-24.8l-15 19.3-8.3-1.6 13-16.4zm-6.5 24.9q-1.9 0-3.7-0.3-1.8-0.4-3.5-0.9-1.7-0.6-3.5-1.3-1.4 1.2-2.7 1.7-1.2 0.5-2.6 0.5-1.9 0-3-1.2-1.2-1.3-1.2-3.1 0-2.6 1.9-4.2 1.9-1.6 4.9-1.6 1.2 0 2.9 0.4 1.7 0.5 3.7 1.1 1.9 0.6 3.7 1.1 1.8 0.4 3.1 0.4l6.4-2.7q0.5 1.3 0.8 2.4 0.2 1 0.2 2.1 0 1.5-1 2.8-0.9 1.3-2.6 2.1-1.7 0.7-3.8 0.7zm-3.6-21.4q-4.8 0-7.7-0.6-3-0.7-4.3-2.1-1.3-1.5-1.3-3.8 0-0.9 0.1-1.9 0.3-1.1 0.6-2.2 1.7 0.7 3.7 1.4 2 0.6 4.1 1.2 2.1 0.5 3.9 0.8 1.8 0.4 3 0.4 1.3-1.8 2.7-2.7 1.4-0.8 3-0.8 2.1 0 3.2 1.1 1.2 1.1 1.2 3.1 0 2.9-3.2 4.5-3.2 1.6-9 1.6zm22.9 21.2q-3.3 0-5-1.7-1.6-1.7-1.6-5.1 0-1.6 0.2-3.4 0.3-1.9 0.7-3.7 0.4-1.8 0.6-3.4 0.3-1.7 0.3-3.1 0-1.2-0.2-2.2-0.2-1-0.6-1.6 1.7-0.9 3.5-1.5 1.9-0.5 3-0.5 1.8 0 2.5 0.7 0.8 0.6 0.8 2.2 0 0.9-0.2 2.5-0.3 1.5-0.7 3.3-0.3 1.8-0.8 3.6-0.3 1.9-0.6 3.3-0.2 1.5-0.2 2.3 0 1.7 0.6 2.4 0.7 0.8 2.2 0.8 1.7 0 3.5-1.3 1.8-1.4 2.8-3.5l0.6 6.7-2.3-1.1q-1.1 1.3-2.5 2.3-1.4 1-3 1.5-1.7 0.5-3.6 0.5zm14.5 0q-2.6 0-3.8-1.3-1.2-1.2-1.2-3.9 0-0.9 0.3-2.9 0.3-1.9 0.9-4.8 0.6-2.9 1.5-6.7l-2.3-3.5q1.9-1.2 3.4-1.8 1.4-0.7 2.6-1 1.2-0.3 2.2-0.3 1.7 0 2.5 0.7 0.7 0.7 0.7 2.4 0 0.5-0.3 1.6-0.2 1.1-0.6 2.6-0.3 1.5-0.7 3.2-0.4 1.7-0.7 3.4-0.4 1.8-0.6 3.4-0.2 1.7-0.2 3 0 2.8 1.3 3.9-2.4 2-5 2zm15.6 0q-2.6 0-3.7-1.3-1.2-1.4-1.2-3.9 0-0.8 0.2-2.4 0.3-1.7 0.6-3.8 0.4-2.2 0.9-4.6 0.5-2.3 1-4.5l-2.3-3.4q1.5-1 3-1.6 1.5-0.7 3.1-0.7 1.8 0 2.6 0.8 0.9 0.9 0.9 2.4 0 1.4-0.4 2.8-0.4 1.3-1 2.7l0.5 0.2q0.9-2.6 1.9-4.7 1.1-2 2.5-3.1 1.3-1.1 3.4-1.1 2 0 3.1 1.1 1.1 1.1 1.1 3 0 2.2-1.3 3.6-1.3 1.5-4 1.5-1.5 0-2.8 0.8-1.3 0.9-2.3 2.4-0.9 1.5-1.5 3.6-0.5 2-0.5 4.3 0 2.6 0.9 3.9-2.3 2-4.7 2zm22.5 0q-2.7 0-3.9-1.3-1.1-1.4-1.1-3.9 0-0.9 0.2-2.6 0.3-1.6 0.7-3.7 0.4-2 0.9-4.1 0.5-2.1 0.9-4l-2.4-3.5q1.9-1.3 4.1-2.2 2.2-0.9 4.2-0.9 1.8 0 2.4 0.7 0.8 0.8 0.8 2.4 0 0.5-0.3 1.6-0.2 1.1-0.6 2.6-0.3 1.5-0.7 3.2-0.4 1.7-0.8 3.4-0.3 1.8-0.5 3.4-0.2 1.7-0.2 3 0 1.3 0.2 2.3 0.4 1 1.1 1.6-2.4 2-5 2zm2.5-28.6q-2 0-3.2-0.9-1.3-0.9-1.3-2.5 0-1.6 0.9-2.6 1-1 2.3-1.5 1.3-0.5 2.5-0.5 1.9 0 3.2 0.9 1.2 0.9 1.2 2.6 0 1.3-0.8 2.4-0.8 1-2.1 1.6-1.2 0.5-2.7 0.5zm20.3 28.6q-5.4 0-8.5-2.9-3.1-2.9-3.1-8 0-3.4 1.1-6.1 1.3-2.9 3.4-4.9 2.2-2.1 5.1-3.2 3-1.1 6.5-1.1 3.6 0 5.7 1.3 2.2 1.3 2.2 3.6 0 1.8-1.2 3-1.3 1.1-3.2 1.1-1.8 0-3.3-1-1.5-1.1-2.3-2.9-1.6 0.6-2.9 2.2-1.3 1.5-2.1 3.6-0.7 2.1-0.7 4.5 0 3 1 4.8 1.1 1.7 3 1.7 1.4 0 2.7-0.9 1.2-0.8 1.9-2.2 0.8-1.5 0.9-3.2 2.5 0 3.8 0.9 1.3 1 1.3 2.7 0 2-1.5 3.6-1.5 1.6-4.1 2.5-2.5 0.9-5.7 0.9zm20.9 0q-2.6 0-3.8-1.3-1.1-1.4-1.1-3.9 0-1 0.2-2.9 0.3-1.9 0.8-4.4 0.4-2.4 0.9-5 0.5-2.7 0.9-5.2 0.5-2.5 0.9-4.5l-2.3-3.3q1.7-1.3 3.8-2.2 2.1-0.9 4-0.9 2 0 2.8 0.7 0.8 0.7 0.8 2.3 0 1.2-0.4 3.2-0.4 1.9-1.1 4.4-0.6 2.4-1.1 5.1l0.4 0.2q1.7-2.9 3.7-4.8 1.9-1.9 4-2.8 2.1-0.9 4.2-0.9 2.6 0 3.9 1.2 1.2 1.2 1.2 3.8 0 1.7-0.4 3.6-0.3 1.9-0.8 3.8-0.5 2-0.9 4-0.4 2-0.4 3.9 0 1.3 0.3 2.3 0.2 1 0.6 1.6-2.2 2-4.6 2-2.6 0-3.8-1.3-1.1-1.4-1.1-3.9 0-1.8 0.4-3.5 0.4-1.8 0.9-3.4 0.5-1.7 0.8-3.2 0.4-1.4 0.4-2.6 0-0.8-0.3-1.3-0.3-0.4-1.1-0.4-1.1 0-2.7 1-1.5 1-2.9 2.8-1.5 1.8-2.4 4.3-1 2.6-1 5.6 0 1.3 0.3 2.3 0.2 1 0.6 1.6-2.2 2-4.6 2z"/>
	<path id="9:00 - 18:00" class="s3" aria-label="9:00 - 18:00"  d="m167.4 334.2q-2.2 0-3.3-0.8-1.1-0.9-1.8-2.6 2.1-0.6 3.9-1.5 1.8-0.8 3.4-2 1.5-1.2 2.8-2.8 1.3-1.6 2.3-3.6h-0.4q-1.4 1.6-2.9 2.2-1.5 0.6-3 0.6-2.1 0-3.7-1-1.5-0.9-2.3-2.5-0.7-1.7-0.7-3.7 0-2.5 1-4.5 1-2.1 2.7-3.6 1.8-1.5 4.1-2.3 2.2-0.9 4.7-0.9 2.5 0 4.4 1.1 1.9 1 3 3 1.1 2.1 1.1 5.3 0 3.1-0.9 6-0.9 2.9-2.4 5.4-1.6 2.4-3.6 4.3-1.9 1.8-4.1 2.8-2.2 1.1-4.3 1.1zm4.6-14.6q0.7 0 1.6-0.6 1-0.7 1.6-1.9 0.6-1.3 0.6-3.2 0-1-0.3-2-0.2-1-0.9-1.6-0.6-0.6-1.7-0.6-0.7 0-1.4 0.4-0.8 0.3-1.4 1.1-0.6 0.7-1.1 1.8-0.4 1.1-0.4 2.7 0 0.9 0.3 1.8 0.3 0.9 1 1.5 0.8 0.6 2.1 0.6zm16.7 10.3q-1.6 0-2.7-1.1-1-1-1-2.5 0-1.2 0.6-2.1 0.6-1 1.5-1.6 1-0.6 2.2-0.6 1.6 0 2.6 1 1 1 1 2.5 0 1.2-0.5 2.1-0.6 1-1.6 1.6-1 0.7-2.1 0.7zm1.6-12.1q-1.6 0-2.7-1-1-1-1-2.5 0-1.2 0.6-2.1 0.6-1 1.5-1.6 1-0.6 2.2-0.6 1.6 0 2.6 1 1 1 1 2.5 0 1.2-0.5 2.1-0.6 1-1.6 1.6-1 0.6-2.1 0.6zm16.5 12.1q-3.1 0-5.3-1.4-2.2-1.3-3.4-3.7-1.2-2.5-1.2-5.8 0-4.1 1.7-7.2 1.7-3.1 4.7-4.9 3.1-1.7 7.1-1.7 0.6 0 1.4 0.2 0.8 0.1 1.3 0.3 0.2 0.2 0.3 0.6 0.1 0.4 0.1 1 2.6 0.7 4 2.9 1.4 2.2 1.4 5.9 0 2.9-0.9 5.4-0.9 2.5-2.6 4.4-1.6 1.8-3.8 2.9-2.3 1.1-4.8 1.1zm0.2-4.9q1.5 0 2.6-1.1 1.1-1.1 1.7-3 0.7-2 0.7-4.5 0-2.7-1-4-0.9-1.3-2.9-1.3-0.5 0-1 0.1-0.4 0.1-0.9 0.3-0.8 1-1.3 2.3-0.5 1.4-0.8 2.9-0.3 1.4-0.3 2.8 0 2.5 0.9 4 0.8 1.5 2.3 1.5zm24.8 4.9q-3.1 0-5.3-1.4-2.2-1.3-3.4-3.7-1.2-2.5-1.2-5.8 0-4.1 1.7-7.2 1.7-3.1 4.7-4.9 3.1-1.7 7.1-1.7 0.6 0 1.4 0.2 0.8 0.1 1.3 0.3 0.2 0.2 0.3 0.6 0.1 0.4 0.1 1 2.6 0.7 4 2.9 1.4 2.2 1.4 5.9 0 2.9-0.9 5.4-0.9 2.5-2.6 4.4-1.6 1.8-3.8 2.9-2.3 1.1-4.8 1.1zm0.2-4.9q1.5 0 2.6-1.1 1.1-1.1 1.7-3 0.7-2 0.7-4.5 0-2.7-1-4-0.9-1.3-2.9-1.3-0.5 0-1 0.1-0.4 0.1-0.9 0.3-0.8 1-1.3 2.3-0.5 1.4-0.8 2.9-0.3 1.4-0.3 2.8 0 2.5 0.9 4 0.8 1.5 2.3 1.5zm27.1-2.2q-1 0-1.6-0.5-0.6-0.6-0.6-2 0-1.8 1-3.9 0.5 0.2 0.9 0.2 0.4 0.1 0.9 0.1 1.2 0 2.4-0.3 1.2-0.4 2.3-0.8 1.1-0.5 2.3-0.8 1.1-0.3 2.3-0.3 1 0 1.5 0.5 0.6 0.5 0.6 2 0 0.8-0.2 1.8-0.2 1.1-0.7 2-0.4-0.1-0.9-0.2-0.4 0-0.9 0-1.2 0-2.4 0.3-1.2 0.3-2.3 0.8-1.2 0.4-2.3 0.8-1.1 0.3-2.3 0.3zm35 7.1q-2.2 0-3.2-1.2-1-1.2-1-3.6 0-0.8 0-1.6 0.1-0.8 0.2-1.8 0.2-1.1 0.5-2.7 0.3-1.7 0.7-4.2-2.2 0-3.6-1.3-1.4-1.3-1.6-3.6 2.3-0.6 4-1.3 1.7-0.8 3-1.6 1.3-0.8 2.3-1.3 1.2-0.5 2.3-0.5 2.4 0 2.4 2.7 0 0.9-0.2 2.4-0.3 1.5-0.7 3.3-0.4 1.8-0.8 3.7-0.4 1.9-0.6 3.8-0.3 1.8-0.3 3.4 0 1.2 0.2 2.2 0.3 1.1 0.8 1.9-2.3 1.3-4.4 1.3zm18.5 0q-4.1 0-6.5-1.7-2.4-1.7-2.4-4.8 0-1 0.3-2 0.3-1.1 1.2-2.1 0.8-1.1 2.6-2.2 1.7-1.2 4.7-2.3 2.1-0.9 3.3-1.8 1.2-1 1.6-2.1 0.5-1 0.5-2 0-1.3-0.7-2-0.7-0.7-1.9-0.7-1.2 0-2.1 0.6-0.8 0.7-0.8 2 0 1.1 0.8 2.1 0.9 0.9 2.2 1.8 1.3 1 2.8 2 1.5 0.9 2.8 2.1 1.3 1.1 2.2 2.4 0.8 1.4 0.8 3 0 2.3-1.4 4-1.5 1.7-4.1 2.7-2.6 1-5.9 1zm0.6-3.6q1 0 1.9-0.4 0.9-0.4 1.4-1.1 0.6-0.7 0.6-1.8 0-0.9-0.9-1.8-0.8-0.9-2.1-1.9-1.4-1-2.9-2.1-1.4-1.1-2.8-2.2-1.3-1.3-2.2-2.6-0.8-1.4-0.8-2.9 0-2.1 1.3-3.6 1.2-1.6 3.5-2.4 2.2-0.9 5.3-0.9 3.8 0 6.1 1.7 2.2 1.7 2.2 4.6 0 2.3-2 4.4-2 2.1-6 3.7-1.8 0.7-3.2 1.8-1.4 1-2.2 2.1-0.8 1.2-0.8 2.5 0 1.3 1 2.1 1.1 0.8 2.6 0.8zm16.5 3.6q-1.6 0-2.7-1.1-1-1-1-2.5 0-1.2 0.6-2.1 0.6-1 1.5-1.6 1-0.6 2.2-0.6 1.6 0 2.6 1 1 1 1 2.5 0 1.2-0.5 2.1-0.6 1-1.6 1.6-1 0.7-2.1 0.7zm1.6-12.1q-1.6 0-2.7-1-1-1-1-2.5 0-1.2 0.6-2.1 0.6-1 1.5-1.6 1-0.6 2.2-0.6 1.6 0 2.6 1 1 1 1 2.5 0 1.2-0.5 2.1-0.6 1-1.6 1.6-1 0.6-2.1 0.6zm16.5 12.1q-3.1 0-5.3-1.4-2.2-1.3-3.4-3.7-1.2-2.5-1.2-5.8 0-4.1 1.7-7.2 1.7-3.1 4.7-4.9 3.1-1.7 7.1-1.7 0.6 0 1.4 0.2 0.8 0.1 1.3 0.3 0.2 0.2 0.3 0.6 0.1 0.4 0.1 1 2.6 0.7 4 2.9 1.4 2.2 1.4 5.9 0 2.9-0.9 5.4-0.9 2.5-2.6 4.4-1.6 1.8-3.8 2.9-2.3 1.1-4.8 1.1zm0.2-4.9q1.5 0 2.6-1.1 1.1-1.1 1.7-3 0.7-2 0.7-4.5 0-2.7-1-4-0.9-1.3-2.9-1.3-0.5 0-1 0.1-0.4 0.1-0.9 0.3-0.8 1-1.3 2.3-0.5 1.4-0.8 2.9-0.3 1.4-0.3 2.8 0 2.5 0.9 4 0.8 1.5 2.3 1.5zm24.8 4.9q-3.1 0-5.3-1.4-2.2-1.3-3.4-3.7-1.2-2.5-1.2-5.8 0-4.1 1.7-7.2 1.7-3.1 4.7-4.9 3.1-1.7 7.1-1.7 0.6 0 1.4 0.2 0.8 0.1 1.3 0.3 0.2 0.2 0.3 0.6 0.1 0.4 0.1 1 2.6 0.7 4 2.9 1.4 2.2 1.4 5.9 0 2.9-0.9 5.4-0.9 2.5-2.6 4.4-1.6 1.8-3.8 2.9-2.3 1.1-4.8 1.1zm0.2-4.9q1.5 0 2.6-1.1 1.1-1.1 1.7-3 0.7-2 0.7-4.5 0-2.7-1-4-0.9-1.3-2.9-1.3-0.5 0-1 0.1-0.4 0.1-0.9 0.3-0.8 1-1.3 2.3-0.5 1.4-0.8 2.9-0.3 1.4-0.3 2.8 0 2.5 0.9 4 0.8 1.5 2.3 1.5z"/>
	<path id="Spaces, Zurich" class="s5" aria-label="Spaces, Zurich"  d="m137.9 423.9q-3.4 0-5.6-0.6-2.1-0.6-3.1-1.7-1-1-1-2.4 0-0.9 0.4-1.9 0.5-1 1.3-1.6 1.2 1.8 3.1 3 1.9 1.2 4.5 1.2 1.9 0 3.3-0.6 1.4-0.6 1.4-2 0-0.7-0.7-1.3-0.7-0.5-1.8-0.9-1.1-0.5-2.5-0.9-1.3-0.4-2.7-1-1.3-0.6-2.5-1.5-1.1-0.9-1.8-2.1-0.6-1.2-0.6-3 0-2.1 1-3.7 1-1.6 2.8-2.6 1.7-1 4-1.5 2.4-0.5 5-0.5 2.7 0 4.6 0.6 2 0.5 3.1 1.6 1 0.9 1 2.3 0 1.7-1.3 2.7-1.2 1-2.9 1-1.6 0-3-0.9-1.4-0.9-2.1-2.8-2.1 0.2-3.4 1-1.4 0.8-1.4 2 0 0.7 0.6 1.3 0.7 0.5 1.8 0.9 1.2 0.4 2.5 0.9 1.4 0.4 2.7 0.9 1.4 0.6 2.5 1.4 1.1 0.8 1.8 2 0.7 1.2 0.7 2.9 0 2-1.1 3.5-1 1.4-2.7 2.4-1.7 0.9-3.8 1.4-2 0.5-4.1 0.5zm25.2-0.9q-1.5 0-2.7-0.3-0.2-0.5-0.3-1.2-0.1-0.7-0.1-1.6 2.8 0 5.1-1 2.2-1.1 3.5-2.9 1.3-1.8 1.3-4.1 0-1.6-0.7-2.5-0.7-1-2-1-1.2 0-2.5 1.4-1.3 1.4-2.3 3.8-1 2.4-1.6 5.5l-0.1-12.4 2.8 1.1q1-2.4 2.7-3.8 1.8-1.4 4.1-1.4 1.9 0 3.3 1 1.5 1 2.2 2.8 0.8 1.8 0.8 4.2 0 2.7-1 5-1 2.3-2.8 4-1.8 1.6-4.2 2.5-2.5 0.9-5.5 0.9zm-5.9 6.8q-2 0-2.9-1-0.9-1-0.9-3.2 0-0.6 0.2-2.3 0.2-1.7 0.5-4.1 0.4-2.5 0.9-5.4 0.5-2.9 1-6l-1.9-2.7q1.6-1.2 3.3-1.9 1.7-0.6 3.1-0.6 1.6 0 2.2 0.6 0.7 0.5 0.7 1.8 0 1-0.3 2.6-0.3 1.6-0.8 3.5-0.4 2-0.9 4.2-0.4 2.2-0.7 4.5-0.3 2.4-0.3 4.7 0 1.3 0.2 2.1 0.2 0.8 0.8 1.5-0.8 0.8-2 1.3-1.1 0.4-2.2 0.4zm28.5-5.9q-1.9 0-3.3-1-1.5-1-2.3-2.8-0.7-1.8-0.7-4.2 0-3 0.9-5.4 1-2.5 2.8-4.2 1.8-1.8 4.3-2.7 2.5-1 5.5-1 1.5 0 2.7 0.3 0.2 0.4 0.3 1.2 0.1 0.7 0.1 1.6-2 0-3.8 0.7-1.8 0.7-3.2 1.9-1.3 1.2-2.1 2.8-0.8 1.6-0.8 3.4 0 1.7 0.7 2.6 0.7 0.9 1.9 0.9 2.6 0 4.1-3 1.5-3 2.1-9.3 0.9-1.2 2-1.7 1.1-0.5 2.5-0.5 1.1 0 1.8 0.7 0.6 0.6 0.6 1.9 0 0.9-0.3 2.5-0.3 1.4-0.8 3.3-0.4 1.8-0.7 3.7-0.3 1.9-0.3 3.5 0 2.2 1 3.1-1 0.8-2.1 1.2-1.1 0.5-2.2 0.5-1.8 0-2.7-1-0.9-1.1-0.9-2.9 0-0.2 0-0.5 0-0.3 0.1-0.7l-0.4-0.2q-0.9 2.5-2.8 3.9-1.8 1.4-4 1.4zm28.3 0q-4.4 0-7-2.4-2.5-2.3-2.5-6.5 0-2.7 1-5 1-2.2 2.7-3.9 1.8-1.7 4.1-2.6 2.4-0.9 5.3-0.9 2.9 0 4.6 1.1 1.8 1.1 1.8 2.9 0 1.4-1 2.4-1 0.9-2.6 0.9-1.4 0-2.6-0.8-1.2-0.9-1.9-2.3-1.3 0.5-2.4 1.7-1 1.2-1.6 3-0.6 1.7-0.6 3.6 0 2.5 0.8 3.9 0.9 1.3 2.4 1.3 1.2 0 2.2-0.6 1-0.7 1.6-1.9 0.6-1.1 0.6-2.5 2.1 0 3.1 0.7 1.1 0.8 1.1 2.2 0 1.6-1.2 2.9-1.2 1.3-3.3 2-2.1 0.8-4.6 0.8zm21.5 0q-4.2 0-6.7-2.3-2.3-2.2-2.3-6.2 0-2.8 0.9-5.1 1.1-2.4 2.9-4.1 1.8-1.7 4.2-2.6 2.5-1 5.4-1 3.1 0 4.8 1.3 1.7 1.3 1.7 3.6 0 2.4-1.7 4.2-1.6 1.7-4.7 2.6-3.1 0.9-7.5 0.8l0.5-2.5q3.6-0.2 5.6-1.3 1.9-1.2 1.9-3.1 0-0.7-0.5-1.1-0.5-0.5-1.3-0.5-1.1 0-2.1 0.7-1 0.7-1.7 2-0.8 1.2-1.3 2.8-0.4 1.6-0.4 3.3 0 2.3 0.8 3.7 0.8 1.2 2.2 1.2 1.8 0 2.9-1.2 1.1-1.3 1.2-3.4 2 0 3.1 0.8 1 0.7 1 2.1 0 1.5-1.1 2.7-1.2 1.2-3.3 1.9-2 0.7-4.5 0.7zm21.1 0q-3.2 0-5-0.6-1.9-0.6-2.7-1.5-0.8-1-0.8-2.2 0-0.8 0.5-1.8 0.5-0.9 1.4-1.6 0.9 1.6 2.4 2.6 1.5 0.9 3.8 0.9 0.6 0 1.4-0.2 0.8-0.2 1.4-0.6 0.7-0.5 0.7-1.2 0-0.6-0.8-1-0.7-0.4-1.9-0.8-1.2-0.3-2.6-0.8-1.3-0.4-2.5-1.1-1.2-0.7-2-1.7-0.7-1.1-0.7-2.7 0-1.9 0.9-3.2 0.8-1.4 2.4-2.2 1.5-0.8 3.4-1.2 2-0.4 4.2-0.4 3.6 0 5.6 1.1 2.1 1.1 2.1 2.9 0 1.6-1.1 2.5-1.2 0.8-2.6 0.8-1.4 0-2.7-0.8-1.2-0.9-1.9-2.7-1.3 0.2-2.4 0.8-1.1 0.6-1.1 1.6 0 0.7 0.8 1.2 0.7 0.4 1.9 0.8 1.2 0.3 2.5 0.8 1.4 0.4 2.6 1.1 1.2 0.6 1.9 1.7 0.8 1.1 0.8 2.8 0 1.9-1 3.1-0.9 1.3-2.5 2.1-1.5 0.7-3.2 1.1-1.7 0.4-3.2 0.4zm13.3 5.8l-0.5-1.5q1.1-0.6 1.9-1.5 0.8-0.8 1.3-1.8 0.4-1 0.4-1.8l-2.4-3.1q0.1-1.1 0.7-2 0.6-0.9 1.6-1.5 1-0.6 2.1-0.6 1.8 0 2.7 1.2 1 1.2 1 2.7 0 2.4-1.1 4.4-1.1 2-3.1 3.5-1.9 1.4-4.6 2zm43.2-25.9l-12.1 15.7-6.7-1.4 10.5-13.3zm-5.3 20.2q-1.6 0-3-0.2-1.4-0.3-2.8-0.8-1.4-0.5-2.8-1-1.2 1-2.2 1.4-1 0.4-2.2 0.4-1.5 0-2.4-1-1-1-1-2.5 0-2.1 1.6-3.4 1.5-1.3 3.9-1.3 1 0 2.4 0.3 1.4 0.4 3 0.9 1.6 0.5 3 0.9 1.5 0.4 2.5 0.4l5.2-2.3q0.4 1.1 0.6 2 0.2 0.8 0.2 1.7 0 1.2-0.8 2.3-0.8 1-2.1 1.6-1.4 0.6-3.1 0.6zm-2.9-17.3q-3.9 0-6.3-0.5-2.4-0.6-3.4-1.7-1.1-1.2-1.1-3.1 0-0.7 0.1-1.5 0.2-0.9 0.5-1.8 1.4 0.6 3 1.1 1.6 0.6 3.3 1 1.7 0.4 3.1 0.7 1.5 0.3 2.5 0.3 1-1.4 2.2-2.2 1.1-0.7 2.4-0.7 1.7 0 2.6 1 1 0.8 1 2.4 0 2.4-2.6 3.7-2.6 1.3-7.3 1.3zm17.4 17.2q-2.7 0-4-1.4-1.3-1.3-1.3-4.1 0-1.4 0.2-2.8 0.2-1.5 0.5-3 0.3-1.4 0.5-2.8 0.3-1.3 0.3-2.4 0-1-0.2-1.8-0.2-0.9-0.5-1.3 1.4-0.8 2.8-1.2 1.6-0.5 2.5-0.5 1.4 0 2 0.6 0.6 0.5 0.6 1.8 0 0.7-0.2 2-0.2 1.2-0.5 2.7-0.3 1.5-0.6 3-0.3 1.4-0.5 2.6-0.2 1.2-0.2 1.9 0 1.3 0.5 1.9 0.6 0.6 1.8 0.6 1.4 0 2.8-1 1.4-1.1 2.3-2.8l0.5 5.4-1.9-0.9q-0.9 1-2 1.8-1.1 0.8-2.5 1.3-1.3 0.4-2.9 0.4zm11.7 0q-2 0-3-1.1-1-1-1-3.1 0-0.8 0.3-2.4 0.2-1.5 0.7-3.9 0.5-2.3 1.2-5.4l-1.9-2.8q1.6-1 2.8-1.5 1.1-0.6 2.1-0.8 1-0.3 1.8-0.3 1.4 0 2 0.6 0.6 0.6 0.6 1.9 0 0.4-0.3 1.4-0.1 0.8-0.4 2.1-0.3 1.2-0.6 2.6-0.3 1.3-0.6 2.7-0.3 1.5-0.5 2.8-0.2 1.3-0.2 2.4 0 2.2 1.1 3.1-1.9 1.7-4.1 1.7zm12.8 0q-2.1 0-3-1.1-1-1.1-1-3.1 0-0.7 0.2-2 0.2-1.3 0.5-3.1 0.3-1.7 0.7-3.6 0.4-2 0.8-3.8l-1.8-2.7q1.1-0.8 2.4-1.3 1.2-0.6 2.5-0.6 1.4 0 2.1 0.7 0.7 0.7 0.7 1.9 0 1.2-0.3 2.3-0.3 1.1-0.8 2.2l0.3 0.2q0.8-2.2 1.6-3.8 0.9-1.6 2-2.5 1.1-0.9 2.8-0.9 1.6 0 2.5 0.9 0.9 0.9 0.9 2.4 0 1.7-1 2.9-1.1 1.2-3.3 1.2-1.2 0-2.3 0.7-1 0.7-1.8 1.9-0.8 1.2-1.2 2.9-0.5 1.6-0.5 3.5 0 2.1 0.8 3.1-1.8 1.7-3.8 1.7zm18.4 0q-2.2 0-3.1-1.1-1-1.1-1-3.1 0-0.8 0.2-2.1 0.3-1.4 0.6-3 0.3-1.7 0.7-3.4 0.4-1.7 0.7-3.2l-1.9-2.8q1.5-1.1 3.3-1.8 1.8-0.8 3.4-0.8 1.4 0 2 0.6 0.6 0.6 0.6 1.9 0 0.4-0.2 1.4-0.2 0.8-0.5 2.1-0.3 1.2-0.6 2.6-0.3 1.3-0.6 2.7-0.3 1.5-0.5 2.8-0.2 1.3-0.2 2.4 0 1 0.3 1.8 0.3 0.8 0.8 1.3-1.9 1.7-4 1.7zm2-23.1q-1.6 0-2.6-0.8-1-0.7-1-2.1 0-1.2 0.7-2 0.8-0.9 1.8-1.3 1.1-0.4 2.1-0.4 1.5 0 2.6 0.8 1 0.7 1 2 0 1.1-0.7 2-0.6 0.8-1.7 1.3-1 0.5-2.2 0.5zm16.7 23.1q-4.4 0-6.9-2.4-2.5-2.3-2.5-6.5 0-2.7 0.9-4.9 1-2.3 2.7-4 1.8-1.6 4.2-2.6 2.4-0.9 5.2-0.9 2.9 0 4.7 1.1 1.7 1.1 1.7 2.9 0 1.5-1 2.4-1 0.9-2.5 0.9-1.5 0-2.7-0.8-1.2-0.8-1.9-2.3-1.3 0.5-2.3 1.7-1.1 1.3-1.7 3-0.6 1.7-0.6 3.6 0 2.5 0.8 3.9 0.9 1.4 2.4 1.4 1.2 0 2.2-0.7 1-0.7 1.6-1.8 0.6-1.2 0.7-2.6 2 0 3.1 0.7 1.1 0.8 1.1 2.2 0 1.6-1.3 2.9-1.2 1.3-3.3 2-2 0.8-4.6 0.8zm16.1 0q-2.2 0-3.1-1.1-0.9-1.1-0.9-3.1 0-0.9 0.2-2.4 0.2-1.6 0.6-3.5 0.3-2 0.7-4.1 0.4-2.2 0.8-4.2 0.4-2 0.7-3.6l-1.9-2.7q1.4-1.1 3.1-1.8 1.7-0.7 3.3-0.7 1.6 0 2.2 0.5 0.6 0.6 0.6 1.9 0 1-0.3 2.6-0.3 1.5-0.8 3.5-0.5 2-1 4.2l0.4 0.2q1.4-2.4 2.9-4 1.6-1.5 3.3-2.2 1.7-0.8 3.4-0.8 2.1 0 3.1 1 1 1 1 3.1 0 1.4-0.3 2.9-0.3 1.5-0.7 3.1-0.3 1.6-0.7 3.2-0.3 1.6-0.3 3.2 0 1 0.2 1.8 0.2 0.8 0.6 1.3-1.8 1.7-3.8 1.7-2.1 0-3-1.1-1-1.1-1-3.1 0-1.5 0.3-2.9 0.3-1.4 0.8-2.8 0.4-1.3 0.7-2.5 0.3-1.2 0.3-2.1 0-0.7-0.3-1.1-0.2-0.3-0.9-0.3-0.9 0-2.1 0.8-1.2 0.8-2.4 2.3-1.2 1.4-2 3.5-0.7 2-0.7 4.5 0 1 0.1 1.8 0.3 0.8 0.6 1.3-1.8 1.7-3.7 1.7z"/>
	<path class="s6" d="m662.48 469.37c-0.85-0.92-1.49-2.02-1.86-3.21-0.38-1.19-0.49-2.46-0.33-3.7 0.16-1.24 0.6-2.43 1.27-3.49 0.67-1.05 1.57-1.95 2.63-2.62l-7.03-29.62 14.86 5.43 4.39 27.29c1.01 1.85 1.31 4.01 0.84 6.06-0.47 2.06-1.68 3.87-3.4 5.09-1.72 1.22-3.82 1.77-5.92 1.55-2.1-0.23-4.04-1.22-5.45-2.78z"/>
	<path class="s7" d="m626.75 345.24l5.96 15.34c0 0-2.56 15.33 1.7 18.74 4.26 3.41 2.56 3.41 2.56 5.96q0.11 1.38 0.5 2.7 0.4 1.32 1.06 2.53 0.66 1.21 1.55 2.26 0.9 1.05 2 1.88c3.41 2.56 18.74 54.52 18.74 54.52h15.33q-0.18-1.48-0.27-2.97-0.1-1.49-0.1-2.99 0-1.5 0.1-2.99 0.09-1.49 0.27-2.97c0.86-5.97-2.55-21.3-4.26-23.86-1.7-2.55 0-5.96 0-11.07 0-5.11-3.4-7.67-3.4-16.19 0-8.51-10.23-74.96-9.37-82.63 0.85-7.66-8.52-14.48-8.52-14.48h-8.52z"/>
	<path fill-rule="evenodd" class="s6" d="m665.96 669.22h-11.33l-5.39-43.71h16.72v43.71z"/>
	<path class="s8" d="m668.85 680.21h-36.54v-0.47c0-1.86 0.37-3.71 1.08-5.44 0.72-1.72 1.76-3.29 3.09-4.61 1.32-1.32 2.88-2.37 4.61-3.08 1.73-0.72 3.57-1.09 5.44-1.09l6.68-5.06 12.45 5.06h3.19z"/>
	<path fill-rule="evenodd" class="s6" d="m562.29 668.9l-10.64-3.89 9.95-42.91 15.71 5.75-15.02 41.05z"/>
	<path class="s8" d="m561.23 680.21l-34.32-12.56 0.16-0.43c0.64-1.75 1.62-3.36 2.89-4.74 1.26-1.37 2.79-2.49 4.48-3.27 1.69-0.79 3.53-1.24 5.39-1.31 1.87-0.08 3.73 0.21 5.48 0.85h0.01l8-2.46 9.96 9.03 3 1.1z"/>
	<path class="s9" d="m640.99 464.82c0 0-7.66 37.48 5.11 34.08 12.78-3.41 7.67-35.78 7.67-35.78z"/>
	<path class="s8" d="m584.77 433.73c0 0-10.22 13.63-10.22 21.3 0 7.66-3.41 75.81-3.41 75.81 0 0-25.87 101.49-20.75 106.6 5.11 5.11 23 10.22 25.55 7.66 2.56-2.55 25.01-107.44 25.01-107.44l21.3-57.08 19.59 81.78 1.71 86.89c0 0 21.3 5.11 25.55 1.71 4.26-3.41 5.12-86.04 0-115.01-5.11-28.96 0.86-95.41 0.86-95.41z"/>
	<path fill-rule="evenodd" class="s6" d="m618.93 251.85c-14.13 0-25.55-11.42-25.55-25.55 0-14.13 11.42-25.56 25.55-25.56 14.13 0 25.56 11.43 25.56 25.56 0 14.13-11.43 25.55-25.56 25.55z"/>
	<path class="s7" d="m586.47 288.91c0 0 7.36-10.96 21.84-25.45 7.67-2.55 20.95-1.06 25.56 0 21.3 28.12 22.64 26.25 28.18 41.96 1.44 4.07 2.16 7.98 1.52 11.18-2.56 12.77 5.53 116.28 6.39 119.68 0.85 3.41 6.81 7.67 0.85 7.67-5.96 0-96.26-3.41-94.56-5.96 1.7-2.56 10.22-149.08 10.22-149.08z"/>
	<path fill-rule="evenodd" class="s10" d="m582.57 436.86l25.63-56.37-12.82 59.95-12.81-3.58z"/>
	<path class="s8" d="m611.2 249.97q0.9-0.66 1.76-1.38 0.86-0.71 1.68-1.46 0.83-0.76 1.61-1.56 0.78-0.79 1.53-1.63 0.74-0.84 1.34-1.78 0.6-0.94 1.06-1.97 0.45-1.02 0.74-2.1 0.29-1.08 0.42-2.2 0.11-1.11-0.07-2.22-0.17-1.11-0.61-2.14-0.45-1.03-1.13-1.91-0.69-0.89-1.57-1.58c-2.44-1.72-6.15-1.62-8.17 0.57 0.98-3.15 1.87-6.88-0.11-9.52-1.8-2.41-5.15-2.82-8.05-3.61q-2.08-0.58-4.02-1.53-1.94-0.95-3.67-2.24-1.73-1.29-3.19-2.87-1.47-1.59-2.62-3.42l4.93 1.02-0.55-3.51 4.08 1.42 0.03-4.89 4.21 2.36q1.92-1.76 4.14-3.11 2.21-1.36 4.65-2.27 2.43-0.9 4.99-1.33 2.57-0.42 5.16-0.35 1.32 0.03 2.63 0.21 1.3 0.19 2.57 0.54 1.27 0.35 2.49 0.85 1.21 0.51 2.36 1.16 1.14 0.66 2.14 1.51 1.01 0.86 1.85 1.87 0.84 1.02 1.48 2.17 0.64 1.15 1.07 2.4c2.17-2.25 6.03-2.07 8.61-0.32 2.59 1.76 4.1 4.7 5.14 7.65q0.77 2.11 1.25 4.3 0.48 2.19 0.65 4.43 0.18 2.24 0.05 4.48-0.13 2.24-0.56 4.44-0.44 2.2-1.25 4.3-0.81 2.09-1.96 4.02-1.16 1.93-2.62 3.63-1.46 1.7-3.19 3.14-1.6 1.21-3.34 2.2-1.75 0.99-3.61 1.73-1.87 0.74-3.81 1.22-1.95 0.48-3.94 0.69-2 0.21-4 0.27-2 0.06-4-0.02-2.01-0.09-4-0.32-1.99-0.23-3.95-0.61"/>
	<path class="s6" d="m574.59 469.26c0.85-0.92 1.49-2.02 1.86-3.21 0.38-1.2 0.49-2.46 0.33-3.7-0.16-1.24-0.6-2.43-1.27-3.49-0.67-1.05-1.57-1.95-2.62-2.62l7.02-29.62-14.86 5.43-4.39 27.29c-1.01 1.85-1.31 4.01-0.84 6.06 0.47 2.06 1.68 3.87 3.4 5.09 1.72 1.22 3.82 1.77 5.92 1.55 2.1-0.23 4.04-1.22 5.45-2.78z"/>
	<path class="s7" d="m594.99 288.91h-8.52c0 0-9.37 6.82-8.52 14.48 0.86 7.67-9.37 74.12-9.37 82.63 0 8.52-3.4 11.08-3.4 16.19 0 5.11 1.7 8.52 0 11.07-1.71 2.56-5.12 17.89-4.26 23.86q0.18 1.48 0.28 2.97 0.09 1.49 0.09 2.99 0 1.49-0.09 2.99-0.1 1.49-0.28 2.97h15.33c0 0 15.33-51.96 18.74-54.52q1.1-0.83 2-1.88 0.89-1.05 1.55-2.26 0.66-1.21 1.06-2.53 0.39-1.32 0.5-2.7c0-2.55-1.7-2.55 2.56-5.96 4.26-3.41 1.7-18.74 1.7-18.74l5.97-15.34z"/>
	<path class="s11" d="m835.97 682.58h-467.29c-0.32 0.01-0.62-0.12-0.85-0.34-0.22-0.23-0.35-0.53-0.35-0.85 0-0.31 0.13-0.62 0.35-0.84 0.23-0.22 0.53-0.35 0.85-0.35h467.29c0.32 0 0.62 0.13 0.85 0.35 0.22 0.22 0.35 0.53 0.35 0.84 0 0.32-0.13 0.62-0.35 0.85-0.23 0.22-0.53 0.35-0.85 0.34z"/>
	<path id="29 November" class="s5" aria-label="29 November"  d="m153.1 242.7l-6.9-1.5q4.1-2.1 6.5-4.1 2.3-1.9 3.3-3.5 1-1.7 1-2.9 0-1.3-0.7-2.1-0.7-0.8-2.2-0.8-1 0-1.9 0.5-0.8 0.5-1.5 1.4-0.6 1-0.9 2.5-1.6-0.2-2.5-1.2-1-0.9-1-2.4 0-1.9 1.2-3.4 1.2-1.4 3.3-2.2 2.1-0.8 4.8-0.8 2.5 0 4.3 0.9 1.9 0.9 2.9 2.5 1 1.5 1 3.4 0 2.1-1 4.2-1.1 2-3.4 4.3-2.4 2.3-6.3 5.2zm6.5 4.3q-1.4 0-2.8-0.3-1.3-0.2-2.6-0.7-1.3-0.4-2.7-1-1.1 1-2.1 1.4-0.9 0.3-2 0.3-1.5 0-2.4-0.9-0.9-1-0.9-2.5 0-1.9 1.4-3.2 1.5-1.3 3.9-1.3 0.9 0 2.2 0.4 1.3 0.3 2.8 0.8 1.5 0.5 2.8 0.9 1.4 0.3 2.4 0.3l5-2.1q0.5 1 0.6 1.9 0.2 0.8 0.2 1.6 0 1.2-0.7 2.2-0.8 1-2.1 1.6-1.3 0.6-3 0.6zm14.8 4.2q-2.2 0-3.3-0.8-1.1-0.9-1.8-2.6 2.1-0.6 3.9-1.5 1.8-0.8 3.4-2 1.5-1.2 2.8-2.8 1.3-1.6 2.3-3.6h-0.4q-1.4 1.6-2.9 2.2-1.5 0.6-3 0.6-2.1 0-3.7-1-1.5-0.9-2.3-2.5-0.7-1.7-0.7-3.7 0-2.5 1-4.5 1-2.1 2.7-3.6 1.8-1.5 4.1-2.3 2.2-0.9 4.7-0.9 2.5 0 4.4 1.1 1.9 1 3 3 1.1 2.1 1.1 5.3 0 3.1-0.9 6-0.9 2.9-2.4 5.4-1.5 2.4-3.6 4.3-1.9 1.8-4.1 2.8-2.2 1.1-4.3 1.1zm4.6-14.6q0.8 0 1.6-0.6 1-0.7 1.6-1.9 0.6-1.3 0.6-3.2 0-1-0.3-2-0.2-1-0.9-1.6-0.6-0.6-1.7-0.6-0.7 0-1.4 0.4-0.8 0.3-1.4 1.1-0.6 0.7-1.1 1.8-0.4 1.1-0.4 2.7 0 0.9 0.3 1.8 0.3 0.9 1 1.5 0.8 0.6 2.1 0.6zm44.2 1.1l0.3 9.2q-1.5 0-2.6-0.4-1.2-0.3-2.2-1.1-0.9-0.8-1.7-2.3-0.8-1.4-1.4-3.5-0.7-2.2-1.3-5.2-0.7-3-1.3-7h-2.2l-0.4-6.1q1.6 0 2.8 0.4 1.2 0.4 2.1 1.4 0.9 1 1.5 2.8 0.8 1.9 1.4 4.8 0.6 2.9 1.3 7zm-16.1 9.2q-2.1 0-3.1-1.1-1-1.1-1-3.5 0-0.8 0.1-1.8 0.1-1 0.3-2.6 0.2-1.7 0.7-4.2 0.4-2.5 1-6.3l-1.8-3.6q1.9-1.2 3.7-1.8 1.8-0.7 3.3-0.7 2.7 0 2.7 3.2 0 0.5-0.2 1.5-0.1 1-0.3 2.4-0.3 1.3-0.6 2.8-0.2 1.5-0.5 3-0.3 1.5-0.5 2.9-0.3 1.4-0.4 2.4-0.2 1-0.2 1.6 0 1.6 0.3 2.5 0.2 1 0.8 1.8-2 1.5-4.3 1.5zm16.4 0q-2.2 0-3.2-1.1-0.9-1.1-0.9-3.5 0-0.8 0-1.8 0.1-1 0.4-2.7 0.2-1.6 0.6-4.1 0.5-2.6 1.1-6.3l-1.5-3.6q1.8-1.3 3.5-1.9 1.7-0.6 3.2-0.6 2.6 0 2.6 3.2 0 0.5-0.1 1.5-0.2 1-0.4 2.3-0.2 1.3-0.5 2.9-0.3 1.5-0.6 3-0.3 1.5-0.5 2.9-0.2 1.3-0.4 2.4-0.1 1-0.1 1.6 0 1.5 0.2 2.5 0.3 0.9 0.8 1.7-1 0.8-2 1.2-1 0.4-2.2 0.4zm18.3 0q-2.8 0-5-1.1-2-1.2-3.2-3.2-1.1-2-1.1-4.7 0-2.7 0.9-5 1-2.2 2.7-3.8 1.8-1.7 4.1-2.6 2.4-0.9 5.2-0.9 0.6 0 1.1 0.1 0.6 0 1.3 0.2 0.2 0.5 0.3 1.3 0.1 0.7 0 1.5-2.7 0-4.7 1.3-2 1.2-3.1 3.3-1.1 2.1-1.1 4.7 0 2.9 1 4.1 1 1.2 2.7 1.2 1.3 0 2.3-0.6 1.1-0.7 1.7-2.1 0.7-1.3 0.9-3.1-1.3-0.7-1.9-1.8-0.7-1.1-0.7-2.6 0-1.4 0.6-2.5 0.6-1.1 1.6-1.8 1-0.6 2.2-0.6 2 0 3.2 1.6 1.2 1.5 1.2 4.1 0 2.7-0.9 5.1-0.9 2.3-2.6 4.1-1.7 1.7-3.9 2.8-2.2 1-4.8 1zm22.7 0q-2.2 0-3.6-0.8-1.4-0.7-2.1-2.3-0.6-1.7-0.6-4.3 0-2.1 0-3.9 0-1.9-0.1-3.5-0.1-1.6-0.5-2.9-0.4-1.3-1.3-2.1 1.9-1.5 4.1-1.5 1.4 0 2.4 0.7 1.1 0.8 1.6 2.6 0.6 1.8 0.6 5.1 0 1-0.1 2.2 0 1.2 0 2.4 0 1.1 0 2.2-0.1 1.1-0.1 1.9h0.3q2.1-3.1 3.4-5.6 1.3-2.6 2-4.5 0.6-2 0.6-3 0-1.3-0.6-2.5 0.8-0.7 2.1-1.1 1.3-0.4 2.4-0.4 1.5 0 2.3 0.7 0.7 0.7 0.7 2.2 0 0.7-0.2 1.7-0.3 0.9-0.9 2.4-0.7 1.4-1.8 3.7-1.1 2.2-2.9 5.6l0.8 1.8q-1 0.9-2.5 1.6-1.4 0.7-3 1.1-1.5 0.5-3 0.5zm24.9 0q-4.2 0-6.6-2.3-2.4-2.2-2.4-6.2 0-2.8 1-5.1 1-2.4 2.8-4.1 1.8-1.7 4.3-2.6 2.4-1 5.3-1 3.1 0 4.8 1.3 1.8 1.3 1.8 3.6 0 2.4-1.7 4.2-1.7 1.7-4.8 2.6-3.1 0.9-7.4 0.8l0.5-2.5q3.6-0.2 5.5-1.3 2-1.2 2-3.1 0-0.7-0.5-1.1-0.5-0.5-1.3-0.5-1.1 0-2.1 0.7-1 0.7-1.8 2-0.8 1.2-1.2 2.8-0.4 1.6-0.4 3.3 0 2.3 0.7 3.7 0.9 1.2 2.3 1.2 1.7 0 2.8-1.2 1.2-1.3 1.2-3.4 2.1 0 3.1 0.8 1.1 0.7 1.1 2.1 0 1.5-1.2 2.7-1.2 1.2-3.2 1.9-2.1 0.7-4.6 0.7zm18.4 0q-2.1 0-3.1-1.1-0.9-1.1-0.9-3.2 0-0.5 0.2-1.6 0.1-1.1 0.3-2.4 0.2-1.4 0.5-2.9 0.3-1.5 0.6-2.9 0.3-1.4 0.6-2.6l-1.8-2.7q1.4-0.8 3-1.3 1.6-0.6 3.3-0.6 1.4 0 2.1 0.7 0.7 0.7 0.7 1.9 0 0.9-0.3 1.8-0.2 1-0.5 1.7l0.3 0.1q2-3.4 4.3-4.8 2.2-1.4 4.6-1.4 1.9 0 3 0.9 1.2 0.9 1.2 2.9 0 0.5-0.1 1.1-0.1 0.5-0.3 1.2l0.4 0.1q2-3.4 4.2-4.8 2.2-1.4 4.7-1.4 2 0 3.1 1 1 1 1 3.1 0 1.4-0.3 2.9-0.3 1.5-0.7 3.1-0.4 1.6-0.7 3.2-0.3 1.6-0.3 3.2 0 1 0.1 1.8 0.3 0.8 0.6 1.3-1.8 1.7-3.7 1.7-2.2 0-3.1-1-0.9-1.1-0.9-2.9 0-1.6 0.3-3.1 0.3-1.4 0.7-2.8 0.4-1.4 0.7-2.5 0.3-1.2 0.3-2.1 0-0.7-0.3-1.2-0.2-0.4-0.8-0.4-1 0-2.1 0.9-1.2 0.8-2.3 2.3-1.1 1.4-1.8 3.5-0.7 2-0.7 4.5 0 1 0.1 1.8 0.2 0.8 0.6 1.3-1.8 1.7-3.8 1.7-2.1 0-3-1-0.9-1.1-0.9-2.9 0-1.6 0.3-3.1 0.3-1.4 0.7-2.8 0.4-1.4 0.7-2.5 0.3-1.2 0.3-2.1 0-0.7-0.3-1.2-0.2-0.4-0.9-0.4-0.9 0-2.1 0.9-1.1 0.8-2.2 2.3-1.1 1.4-1.9 3.5-0.7 2-0.7 4.5 0 1 0.2 1.8 0.2 0.8 0.5 1.3-1.8 1.7-3.7 1.7zm41.1 0q-2.5 0-3.9-0.8-1.5-0.7-2.1-2.1-0.6-1.4-0.6-3.4 0-0.7 0.1-1.7 0.1-1.1 0.4-2.8 0.3-1.8 0.7-4.5 0.5-2.7 1.2-6.7l-1.9-2.7q1.4-1.1 3.1-1.8 1.7-0.7 3.2-0.7 1.6 0 2.3 0.6 0.6 0.5 0.6 1.8 0 1.3-0.5 3.5-0.6 2.3-1.2 5l0.4 0.2q1-2.4 2.8-3.8 1.8-1.4 4-1.4 1.9 0 3.3 1 1.5 1 2.2 2.8 0.8 1.8 0.8 4.2 0 2.9-1.1 5.4-1 2.4-3 4.2-2 1.7-4.7 2.7-2.8 1-6.1 1zm-0.6-3.6q1.8-0.1 3.4-0.8 1.6-0.8 2.8-1.9 1.2-1.2 1.9-2.6 0.7-1.5 0.7-3.1 0-1.6-0.7-2.5-0.7-1-2-1-1.2 0-2.3 0.9-1.1 0.8-2 2.4-0.8 1.5-1.3 3.8-0.5 2.1-0.5 4.8zm27.1 3.6q-4.2 0-6.6-2.3-2.4-2.2-2.4-6.2 0-2.8 1-5.1 1-2.4 2.8-4.1 1.8-1.7 4.3-2.6 2.4-1 5.3-1 3.1 0 4.8 1.3 1.8 1.3 1.8 3.6 0 2.4-1.7 4.2-1.7 1.7-4.8 2.6-3.1 0.9-7.4 0.8l0.5-2.5q3.6-0.2 5.5-1.3 2-1.2 2-3.1 0-0.7-0.5-1.1-0.5-0.5-1.3-0.5-1.1 0-2.1 0.7-1 0.7-1.8 2-0.8 1.2-1.2 2.8-0.4 1.6-0.4 3.3 0 2.3 0.7 3.7 0.9 1.2 2.3 1.2 1.7 0 2.8-1.2 1.2-1.3 1.2-3.4 2.1 0 3.1 0.8 1.1 0.7 1.1 2.1 0 1.5-1.2 2.7-1.2 1.2-3.2 1.9-2.1 0.7-4.6 0.7zm18.4 0q-2.1 0-3-1.1-0.9-1.1-0.9-3.2 0-0.6 0.1-1.9 0.2-1.4 0.5-3.1 0.3-1.8 0.7-3.7 0.4-1.9 0.8-3.7l-1.8-2.7q1.2-0.8 2.4-1.3 1.2-0.6 2.5-0.6 1.5 0 2.1 0.7 0.7 0.7 0.7 1.9 0 1.1-0.3 2.3-0.3 1.1-0.8 2.2l0.4 0.2q0.8-2.2 1.6-3.8 0.8-1.7 1.9-2.5 1.2-1 2.9-1 1.6 0 2.4 1 1 0.8 1 2.4 0 1.7-1.1 2.9-1.1 1.2-3.3 1.2-1.2 0-2.3 0.7-1 0.6-1.8 1.9-0.7 1.2-1.2 2.9-0.4 1.6-0.4 3.5 0 2.1 0.7 3.1-1.8 1.7-3.8 1.7z"/>
</svg>