<svg version="1.2" xmlns="http://www.w3.org/2000/svg" viewBox="0 0 712 612" width="712" height="612">
	<style>
		.s0 { fill: #090814 } 
		.s1 { fill: #ffb6b6 } 
		.s2 { fill: #cccccc } 
		.s3 { fill: #d53f8c } 
		.s4 { fill: #d6d6e3 } 
		.s5 { fill: #284b95 } 
	</style>
	<path class="s0" d="m282.25 169.96c0.17 0.64-0.29 1.09-0.96 0.96-13.1-5.4-58.73-27.19-59.54-40.23 48.42 20.17 83.01-57.18 77.37-84.15-3.02 15.02-32.18 33.79-45.31 30.85-1.48-0.33-18.04 19.12-13.02 22.66-6.49 10.01-12.98 59.11-21.21 62.19-0.28 0.1-0.67-0.09-0.97 0-33.07-10.51-60.72-6.56-80.99-40.98-13.46-22.83-2.73-16.75 12.05-26.51 29.3-19.36 19.13-31.74 34.23-58.34 33.69-59.34 103.26-35.38 120.53-3.86 20.49 37.42-8.44 88.74 24.1 129.21-14.7 6.25-43.11 5.19-46.76 6.27-1.9 0.56 0.45 1.83 0.48 1.93z"/>
	<path class="s1" d="m174.45 75.48c0-36.66 29.72-66.37 66.38-66.37 36.66 0 66.37 29.71 66.37 66.37 0 29.74-19.54 54.9-46.49 63.35l-9.89 7.97 17.76 62.19-20.7 14.64-65.42-54.51c0 0 14.14-18 21.71-38.3-17.91-11.89-29.72-32.23-29.72-55.34z"/>
	<path class="s1" d="m470.99 245.56l-47.56 165.26-48.09-33.38 56.67-144.19c-4.94-9.15-6.17-21.18-2.41-33.08 6.56-20.81 25.85-33.27 43.07-27.83 17.22 5.44 25.86 26.71 19.29 47.52-3.76 11.89-11.67 21.04-20.97 25.7z"/>
	<path fill-rule="evenodd" class="s1" d="m140.72 310.81h171.55v199.81h-171.55z"/>
	<path class="s2" d="m431.95 611.37h-399.44c-1.29-0.1-2.25-1.23-2.17-2.52-0.08-1.28 0.88-2.41 2.17-2.51h399.44c1.14 0.14 2.04 1.05 2.18 2.18 0.18 1.4-0.79 2.66-2.18 2.85z"/>
	<path fill-rule="evenodd" class="s3" d="m198.3 151.48l-40.78 93.13 4.04 160.06h137.83l4.33-169.83-51.18-78.87-54.24-4.49z"/>
	<path class="s0" d="m116.37 188.54c0 0-11.94 342.47-44 398.99 0 0 44.31 7.72 55.57-8.25 11.27-15.96 54.73-122.27 55.2-145.81 0.47-23.54 14.09-282.1 14.09-282.1z"/>
	<path class="s0" d="m248.94 165.38l3.6-9.41 91.41 36.3c0 0-4.26 342.24 32.74 376.83 0 0-61.82-2.95-63.87-4.37-2.06-1.41-46.94-178.39-46.94-178.39 0 0 21.4-81.99 23.05-116.99 1.65-35.01-39.99-103.97-39.99-103.97z"/>
	<path fill-rule="evenodd" class="s0" d="m130.19 435.61l-38.92 118.24-2.31 56.53h287.71l-55.49-174.77h-190.99z"/>
	<path class="s0" d="m320.76 198.96l23.19-6.69 53.33 108 22.86-59.16 56.46 16.14c0 0-25.66 166.56-64.47 157.6-38.8-8.96-91.37-100.43-91.37-100.43 0 0 0-115.46 0-115.46z"/>
	<path class="s1" d="m92.13 528.77l-77.83-113.14 35.78-31.48 73.14 123.14c9.48 1.59 18.96 7.51 25.52 17 11.47 16.59 9.63 37.74-4.11 47.23-13.73 9.49-34.16 3.73-45.63-12.86-6.55-9.49-8.74-20.45-6.87-29.89z"/>
	<path class="s0" d="m130.19 198.09l-13.82-9.55-113.01 213.46c0 0-9.17 12.87 2.79 33.61 11.97 20.74 73.4 84.25 73.4 84.25l48.39-27.34-49.29-91.87 46.47-80.37c0 0 5.07-122.19 5.07-122.19z"/>
	<path class="s0" d="m299.12 46.54c-3.02 15.02-63.35 49.97-58.33 53.51-6.49 10.01-12.98 59.11-21.21 62.19-0.28 0.1-0.67-0.09-0.97 0-33.07-10.51-60.72-6.56-80.99-40.98-13.46-22.83-2.73-16.75 12.05-26.51 29.3-19.36 19.13-31.75 34.23-58.34 33.69-59.34 103.26-35.38 120.53-3.86 20.49 37.42 0.33 40.96-5.31 13.99z"/>
	<path fill-rule="evenodd" class="s4" d="m277.18 207.44h433.98v394.31h-433.98z"/>
	<path class="s0" d="m680.66 573.58h-377.65v-274.98h377.65zm-375.65-2h373.65v-270.99h-373.65z"/>
	<path fill-rule="evenodd" class="s0" d="m306.35 344.47h373.31v2h-373.31z"/>
	<path fill-rule="evenodd" class="s0" d="m356.68 298.43h2v272.99h-2z"/>
	<path fill-rule="evenodd" class="s0" d="m408.01 298.43h2v272.99h-2z"/>
	<path fill-rule="evenodd" class="s0" d="m459.34 298.43h2v272.99h-2z"/>
	<path fill-rule="evenodd" class="s0" d="m515.34 298.43h2v272.99h-2z"/>
	<path fill-rule="evenodd" class="s0" d="m569 298.43h2v272.99h-2z"/>
	<path fill-rule="evenodd" class="s0" d="m625 298.43h2v272.99h-2z"/>
	<path fill-rule="evenodd" class="s0" d="m307.51 389.59h373.32v2h-373.32z"/>
	<path fill-rule="evenodd" class="s0" d="m304.01 434.72h373.32v2h-373.32z"/>
	<path fill-rule="evenodd" class="s0" d="m302.85 479.85h373.31v2h-373.31z"/>
	<path fill-rule="evenodd" class="s0" d="m304.01 524.98h373.32v2h-373.32z"/>
	<path id="SA" class="s5" aria-label="SA"  d="m586.7 293.6q-2.4 0-4-0.4-1.5-0.4-2.2-1.2-0.7-0.7-0.7-1.7 0-0.6 0.4-1.3 0.3-0.7 0.8-1.2 0.9 1.3 2.2 2.2 1.3 0.8 3.2 0.8 1.4 0 2.3-0.4 1-0.4 1-1.4 0-0.5-0.5-0.9-0.5-0.4-1.2-0.7-0.8-0.3-1.8-0.6-0.9-0.3-1.9-0.7-1-0.5-1.7-1.1-0.8-0.6-1.3-1.5-0.5-0.8-0.5-2.1 0-1.5 0.7-2.6 0.7-1.1 2-1.8 1.2-0.7 2.9-1.1 1.6-0.3 3.4-0.3 2 0 3.3 0.4 1.4 0.4 2.2 1.1 0.7 0.7 0.7 1.6 0 1.3-0.9 2-0.8 0.6-2 0.6-1.2 0-2.2-0.6-0.9-0.6-1.5-2-1.4 0.2-2.4 0.7-1 0.6-1 1.4 0 0.6 0.5 1 0.5 0.4 1.3 0.6 0.8 0.3 1.7 0.6 1 0.3 1.9 0.7 1 0.4 1.8 1 0.8 0.5 1.3 1.4 0.4 0.8 0.4 2 0 1.4-0.7 2.5-0.7 1-2 1.7-1.2 0.7-2.6 1-1.5 0.3-2.9 0.3zm12 0.1q-2.2 0-2.2-2.4 0-0.7 0.2-1.7 0.3-0.9 0.8-2.3 0.6-1.4 1.5-3.4 1-2 2.4-4.7l-0.8-2.1q1.3-0.8 2.4-1.2 1.2-0.3 2.4-0.3 1.4 0 2 0.6 1.1-0.6 2-0.6 1.3 0 1.9 0.8 0.6 0.9 0.6 2.7 0 1.5 0 2.9 0 1.4 0 2.7 0 1.2 0.1 2.4 0.1 1.1 0.2 2.2 0.2 1 0.5 1.8 0.3 0.9 0.7 1.5-1.3 1.1-3 1.1-0.9 0-1.6-0.4-0.7-0.5-1.1-1.4-0.4-0.9-0.6-2.4-0.2-1.5-0.2-3.5 0-2.1 0-4 0-1.8 0.1-3.2h-0.3q-1.6 2.5-2.7 4.8-1.2 2.2-1.8 4-0.6 1.7-0.6 2.8 0 1.3 0.5 2.2-0.7 0.5-1.6 0.8-0.9 0.3-1.8 0.3zm9.9-4.6h-8.3l0.5-2.8h8.3z"/>
	<path id="29" class="s5" aria-label="29"  d="m588.1 509.7l-4.8-1.1q2.9-1.5 4.5-2.9 1.7-1.3 2.4-2.5 0.7-1.1 0.7-2 0-0.9-0.5-1.5-0.5-0.5-1.6-0.5-0.6 0-1.3 0.3-0.6 0.3-1.1 1-0.4 0.7-0.6 1.7-1.2-0.1-1.8-0.8-0.6-0.6-0.6-1.7 0-1.4 0.8-2.4 0.8-1 2.3-1.5 1.5-0.6 3.4-0.6 1.7 0 3 0.6 1.3 0.7 2.1 1.8 0.7 1.1 0.7 2.4 0 1.5-0.8 3-0.7 1.4-2.4 3-1.6 1.6-4.4 3.7zm4.6 3q-1 0-1.9-0.2-1-0.2-1.9-0.5-0.9-0.3-1.9-0.7-0.8 0.7-1.5 1-0.6 0.2-1.4 0.2-1.1 0-1.7-0.6-0.7-0.7-0.7-1.8 0-1.4 1.1-2.3 1-0.9 2.7-0.9 0.6 0 1.6 0.3 0.9 0.2 1.9 0.6 1.1 0.3 2.1 0.6 0.9 0.2 1.6 0.2l3.6-1.5q0.3 0.7 0.4 1.3 0.1 0.6 0.1 1.2 0 0.9-0.5 1.6-0.5 0.7-1.5 1.1-0.9 0.4-2.1 0.4zm11.5 2.9q-1.5 0-2.3-0.5-0.8-0.6-1.3-1.9 1.5-0.4 2.7-1 1.3-0.6 2.4-1.4 1.1-0.8 2-1.9 0.9-1.2 1.6-2.6h-0.2q-1 1.1-2.1 1.5-1 0.5-2 0.5-1.6 0-2.7-0.7-1-0.7-1.6-1.8-0.5-1.2-0.5-2.7 0-1.7 0.7-3.1 0.7-1.5 1.9-2.5 1.3-1.1 2.9-1.7 1.6-0.6 3.3-0.6 1.8 0 3.1 0.7 1.4 0.8 2.2 2.2 0.8 1.5 0.8 3.7 0 2.2-0.7 4.3-0.6 2-1.7 3.8-1.1 1.7-2.5 3-1.4 1.3-2.9 2-1.6 0.7-3.1 0.7zm3.2-10.2q0.6 0 1.2-0.5 0.7-0.4 1.1-1.3 0.5-0.9 0.5-2.3 0-0.7-0.2-1.4-0.2-0.6-0.7-1.1-0.4-0.4-1.2-0.4-0.5 0-1 0.3-0.5 0.2-1 0.7-0.4 0.5-0.7 1.3-0.3 0.8-0.3 1.9 0 0.7 0.2 1.3 0.2 0.6 0.7 1 0.5 0.5 1.4 0.5z"/>
	<path id="November" class="s3" aria-label="November"  d="m409.4 255.7v5.1q-1.2 0-2.1-0.2-1-0.3-1.8-1.1-0.8-0.8-1.7-2.4-0.8-1.6-1.7-4.1-0.9-2.5-2.1-6.2-1.2-3.7-2.7-8.8h-1.7l0.2-4.3q1.1 0 2 0.5 1 0.4 1.8 1.7 0.9 1.3 1.9 3.7 0.9 2.4 2.2 6.3 1.3 4 3 9.8zm-17 5.1q-1.3 0-2-0.7-0.6-0.7-0.6-2.2 0-1.1 0.1-2.6 0.2-1.5 0.5-3.8 0.3-2.3 0.9-5.7 0.5-3.5 1.3-8.4l-1.1-2.2q1.1-0.7 2.3-1.1 1.1-0.4 2-0.4 1.6 0 1.6 1.9 0 0.3-0.2 1.4-0.2 1.1-0.5 2.8-0.2 1.6-0.6 3.6-0.3 2-0.6 4.1-0.3 2-0.6 3.8-0.3 1.8-0.5 3.2-0.1 1.5-0.1 2.2 0 1 0.2 1.8 0.2 0.8 0.7 1.3-1.4 1-2.8 1zm17 0q-1.4 0-2-0.7-0.6-0.7-0.6-2.2 0-1.1 0.1-2.6 0.2-1.5 0.5-3.8 0.3-2.3 0.9-5.7 0.5-3.5 1.3-8.4l-1.2-2.2q1.2-0.7 2.3-1.1 1.2-0.4 2.1-0.4 1.5 0 1.5 1.9 0 0.3-0.1 1.4-0.2 1.1-0.5 2.8-0.2 1.6-0.5 3.6-0.4 2-0.7 4.1-0.4 2-0.6 3.8-0.3 1.9-0.5 3.3-0.1 1.4-0.1 2.1 0 1 0.2 1.8 0.2 0.8 0.6 1.4-0.7 0.4-1.4 0.7-0.6 0.2-1.3 0.2zm18.5-0.1q-2.6 0-4.6-1.1-1.9-1.2-3-3.3-1.1-2.1-1.1-5 0-2.9 0.9-5.3 1-2.4 2.7-4.1 1.7-1.8 4-2.7 2.3-1 5-1 0.8 0 1.4 0.1 0.7 0 1.4 0.2 0.3 0.4 0.3 0.8 0.1 0.4 0.2 0.9-3.7 0-6.2 1.5-2.6 1.5-3.9 4-1.3 2.5-1.3 5.8 0 3.2 1.2 5 1.2 1.8 3.4 1.8 2.1 0 3.8-1.2 1.7-1.2 2.8-3.3 1.1-2.2 1.4-5.2-1.5-0.9-2.2-2-0.6-1.2-0.6-2.6 0-1 0.4-1.7 0.4-0.7 1-1.1 0.6-0.4 1.5-0.4 1.6 0 2.6 1.4 0.9 1.5 0.9 4.1 0 3.1-0.9 5.7-0.9 2.6-2.6 4.6-1.6 1.9-3.8 3-2.2 1.1-4.7 1.1zm23.8 0q-1.6 0-2.6-0.6-1-0.7-1.3-2.3-0.4-1.6-0.4-4.4 0-2.2 0-4.3 0-2.1-0.1-3.9-0.1-1.9-0.6-3.5-0.5-1.5-1.5-2.6 1.1-0.9 2.5-0.9 1.5 0 2.3 1.1 0.8 1 1.2 3.5 0.3 2.4 0.3 6.6 0 2.3 0 3.8 0 1.5 0 2.4 0 0.8 0 1.3 0 0.4 0 0.7h0.4q2.9-4.1 4.7-7.1 1.8-3 2.6-5.1 0.8-2 0.8-3.3 0-1.7-0.7-3 0.9-0.5 1.5-0.6 0.7-0.3 1.4-0.3 0.9 0 1.4 0.8 0.6 0.6 0.6 1.9 0 1.1-0.6 2.7-0.5 1.6-1.6 3.7-1 2.1-2.7 4.8-1.6 2.7-3.7 6l0.5 1.1q-0.4 0.4-1.2 0.8-0.7 0.3-1.6 0.6-0.8 0.1-1.6 0.1zm25.3 0q-3.8 0-6-2.3-2.1-2.3-2.1-6.4 0-3 1-5.5 0.9-2.5 2.7-4.4 1.8-1.8 4.1-2.8 2.4-1.1 5.2-1.1 2.9 0 4.4 1.4 1.7 1.3 1.7 3.8 0 2.5-1.9 4.4-1.8 1.8-5.3 2.7-3.5 1-8.5 1l0.4-2q5.4 0 8.4-1.6 2.9-1.7 2.9-4.6 0-1.3-0.7-2-0.7-0.8-2-0.8-1.6 0-3.1 0.9-1.4 0.9-2.5 2.5-1.1 1.6-1.7 3.7-0.7 2.2-0.7 4.6 0 2.8 1.1 4.5 1.1 1.6 3 1.6 2.3 0 3.8-1.4 1.5-1.5 1.6-4 1.4 0 2.1 0.5 0.8 0.5 0.8 1.7 0 1.4-1.1 2.7-1.2 1.3-3.2 2.1-1.9 0.8-4.4 0.8zm18.7 0q-1.3 0-1.9-0.6-0.6-0.7-0.6-1.9 0-0.8 0.2-2.2 0.2-1.4 0.5-3.2 0.4-1.8 0.8-3.8 0.4-1.9 0.8-3.8 0.5-1.8 0.9-3.4l-1.7-1.8q0.9-0.8 2.1-1.2 1.2-0.5 2.1-0.5 1.1 0 1.5 0.5 0.4 0.4 0.4 1.5 0 1-0.3 2.2-0.3 1.1-0.8 2.1l0.4 0.2q1.9-3.6 4.1-5.1 2.2-1.5 4.7-1.5 2.4 0 3.3 1.3 1 1.3 1 3.3 0 0.4 0 0.9-0.1 0.4-0.2 0.9l0.3 0.2q2-3.6 4.3-5.1 2.2-1.5 4.8-1.5 2.4 0 3.5 1.2 1.2 1.1 1.2 3.6 0 1.7-0.4 3.5-0.4 1.8-0.9 3.7-0.5 1.9-0.9 3.8-0.4 2-0.4 3.9 0 0.5 0.1 1 0.2 0.5 0.4 0.8-1.1 1-2.3 1-1.3 0-1.9-0.6-0.5-0.7-0.5-2 0-1.5 0.3-3.3 0.3-1.9 0.8-3.9 0.5-1.9 0.8-3.7 0.4-1.8 0.4-3 0-1.4-0.5-2.1-0.5-0.8-1.8-0.8-1.4 0-3.1 1.2-1.6 1.2-3 3.4-1.4 2.2-2.3 5.3-0.9 3-0.9 6.7 0 0.5 0.1 1 0.1 0.5 0.4 0.8-1.1 1-2.3 1-1.3 0-1.9-0.6-0.5-0.7-0.5-2 0-1.5 0.3-3.3 0.3-1.9 0.8-3.9 0.5-1.9 0.8-3.7 0.4-1.8 0.4-3 0-1.4-0.6-2.1-0.5-0.8-1.7-0.8-1.5 0-3.1 1.2-1.6 1.2-3 3.4-1.4 2.2-2.3 5.3-0.9 3-0.9 6.7 0 0.5 0.1 1 0.1 0.5 0.3 0.8-1 1-2.2 1zm42 0q-1.2 0-2.2-0.3-1-0.3-1.6-1.3-0.6-1-0.6-3 0-1.3 0.2-3.4 0.3-2.1 0.8-4.8 0.5-2.8 1.1-6 0.7-3.2 1.5-6.6l-1.6-1.8q0.9-0.7 2-1.1 1.2-0.4 2.1-0.4 1.1 0 1.5 0.4 0.4 0.5 0.4 1.6 0 1.1-0.7 3.7-0.7 2.6-1.5 6.1l0.4 0.2q1.3-2.8 3.4-4.2 2-1.6 4.4-1.6 2 0 3.4 1 1.5 1 2.3 2.8 0.8 1.8 0.8 4.3 0 3-1.2 5.7-1.2 2.6-3.4 4.6-2.2 1.9-5.1 3.1-3 1-6.4 1zm-0.9-2.3q2.7-0.1 5-1 2.3-0.9 4-2.5 1.7-1.6 2.6-3.6 1-2.1 1-4.5 0-2.4-1-3.8-1-1.4-2.8-1.4-1.7 0-3.3 1.2-1.5 1.2-2.8 3.4-1.2 2.3-2 5.4-0.7 3-0.7 6.8zm30.7 2.3q-3.8 0-6-2.3-2.1-2.3-2.1-6.4 0-3 1-5.5 0.9-2.5 2.7-4.4 1.8-1.8 4.1-2.8 2.4-1.1 5.2-1.1 2.9 0 4.4 1.4 1.7 1.3 1.7 3.8 0 2.5-1.9 4.4-1.8 1.8-5.3 2.7-3.5 1-8.5 1l0.4-2q5.4 0 8.4-1.6 2.9-1.7 2.9-4.6 0-1.3-0.7-2-0.7-0.8-2-0.8-1.6 0-3.1 0.9-1.4 0.9-2.5 2.5-1.1 1.6-1.7 3.7-0.6 2.2-0.6 4.6 0 2.8 1 4.5 1.1 1.6 3 1.6 2.3 0 3.8-1.4 1.5-1.5 1.6-4 1.4 0 2.1 0.5 0.8 0.5 0.8 1.7 0 1.4-1.1 2.7-1.2 1.3-3.1 2.1-2 0.8-4.5 0.8zm18.6 0q-1.2 0-1.8-0.7-0.6-0.7-0.6-2.2 0-0.8 0.2-2.5 0.3-1.8 0.8-4.1 0.4-2.3 1-4.7 0.5-2.5 1.1-4.7l-1.6-1.8q1-0.8 1.9-1.2 0.9-0.5 1.7-0.5 1.1 0 1.5 0.7 0.4 0.5 0.4 1.3 0 1.3-0.4 2.6-0.4 1.4-1 2.9l0.3 0.2q1.2-2.7 2.3-4.4 1.2-1.7 2.4-2.6 1.2-0.8 2.4-0.8 1.2 0 1.8 0.5 0.6 0.5 0.6 1.6 0 1.3-0.9 2-1 0.7-2.5 0.7-1.4 0-2.8 1.2-1.4 1.3-2.5 3.4-1.1 2.1-1.8 4.8-0.6 2.7-0.6 5.5 0 1.3 0.4 1.8-1.1 1-2.3 1z"/>
	<path id="Shape 1" fill-rule="evenodd" class="s3" d="m349 510.97v-13.27h165.82v-6.63l53.06 13.27-53.06 13.26v-6.63z"/>
	<path id="Shape 1 copy" fill-rule="evenodd" class="s3" d="m592.38 314h10.92v122.65h5.46l-10.92 43.7-10.93-43.7h5.47z"/>
</svg>