<svg version="1.2" xmlns="http://www.w3.org/2000/svg" viewBox="0 0 1000 250" width="800" height="200">
	<style>
		.s0 { fill: #d53f8c;stroke: #000000;paint-order:stroke fill markers;stroke-linejoin: round;stroke-width: .5 } 
		.s1 { fill: #284b95 } 
	</style>
	<g>
		<g>
			<g>
				<g>
				</g>
			</g>
		</g>
		<g>
			<g id="eFjcStfEpxe9">
				<g>
				</g>
			</g>
			<path class="s0" d="m326.69 204.5h6.25v14.19h-5.69q-22.69 0-30.44-7.25-7.62-7.32-7.62-29.13v-23.62q0-14.88-4.94-20.63-4.94-5.69-17.87-5.69h-5.57v-14.12h5.57q13.06 0 17.87-5.63 4.94-5.75 4.94-20.43v-23.69q0-21.81 7.62-29 7.75-7.31 30.44-7.31h5.69v14.12h-6.25q-12.81 0-16.75 4.31-3.94 4.32-3.94 18.25v24.5q0 15.5-4.19 22.5-4.06 7-14.12 9.44 10.12 2.69 14.25 9.69 4.06 7 4.06 22.44v24.43q0 13.94 3.94 18.32 3.94 4.31 16.75 4.31z"/>
			<path class="s0" d="m674.43 48.13l-6.19-0.01v-14.06h5.63q22.5 0 30.19 7.25 7.62 7.19 7.62 28.81v23.32q0 14.75 4.88 20.43 4.87 5.69 17.68 5.69h5.57v13.94h-5.57q-12.87 0-17.68 5.56-4.88 5.69-4.88 20.25v23.44q0 21.56-7.62 28.75-7.69 7.19-30.19 7.19h-5.63v-13.94h6.19q12.75 0 16.63-4.31 3.87-4.31 3.87-18.06v-24.25q0-15.32 4.19-22.25 4.06-6.94 14-9.38-10.06-2.69-14.13-9.62-4.06-6.94-4.06-22.13v-24.25q0-13.75-3.87-18.06-3.88-4.31-16.63-4.32z"/>
		</g>
		<path id="404" class="s1" aria-label="404"  d="m429.3 176h-20.6v-20.6h-48.8v-28.5l30.3-60.3h39.1v69.1h15.9v19.7h-15.9zm-51.6-43.1v2.8h31v-58.8h-2.8zm120 45.3q-18.7 0-29.5-11.4-10.8-11.5-10.8-33.3v-24.3q0-21.1 10.8-32.8 10.8-11.9 29.5-11.9 18.8 0 29.6 11.9 10.7 11.7 10.7 32.8v24.3q0 21.8-10.7 33.3-10.8 11.4-29.6 11.4zm0-18.7q11.3 0 15.5-6.9 4.2-6.9 4.2-17.8v-26.9q0-6.9-2-12.5-2-5.6-6.4-8.9-4.2-3.3-11.3-3.3-7 0-11.4 3.3-4.3 3.3-6.4 8.9-1.9 5.6-1.9 12.5v26.9q0 10.9 4.3 17.8 4.2 6.9 15.4 6.9zm0-25q-5.3 0-9.2-3.9-3.9-3.9-3.9-9.2 0-5.4 3.9-9.3 3.9-3.9 9.2-3.9 5.3 0 9.3 3.9 3.9 3.9 3.9 9.3 0 5.3-3.9 9.2-4 3.9-9.3 3.9zm123.5 41.5h-20.6v-20.6h-48.7v-28.4l30.3-60.3h39v69h16v19.7h-16zm-51.5-43.1v2.8h30.9v-58.7h-2.8z"/>
	</g>
</svg>