<svg version="1.2" xmlns="http://www.w3.org/2000/svg" viewBox="0 0 1600 400" width="1600" height="400">
	<style>
		.s0 { fill: #201e99;stroke: #000000;paint-order:stroke fill markers;stroke-linejoin: round;stroke-width: .8 } 
		.s1 { fill: #d53f8c;stroke: #000000;paint-order:stroke fill markers;stroke-linejoin: round;stroke-width: .8 } 
		.s2 { fill: #201e99 } 
	</style>
	<g>
		<g>
			<path class="s0" d="m523.6 267.3q-9 0-14.1-3.9-5.1-3.9-7.3-13.4-2.1-9.6-2.1-26.2 0-12.8 0.2-25.3 0.2-12.6-0.5-23.9-0.8-11.4-3.6-20.6-2.6-9.3-8.7-15.7 6.4-4.8 13.7-4.8 8.5 0 12.9 6.4 4.6 6.3 6.4 21.2 1.7 14.9 1.7 40.4 0 15 0 24 0 9.1 0 13.8 0 4.6-0.1 6.9 0 2.2 0 3.8h2.1q17-25.3 27.2-43.4 10.5-18.2 15.1-30.4 4.8-12.4 4.8-19.9 0-5.5-0.9-9.7-0.9-4.4-3.4-8.3 5.5-3 8.7-3.9 3.3-0.9 6.7-0.9 5 0 7.8 4.2 3 4.1 3 11.4 0 6.5-3.2 16.4-3 9.9-9.4 23.2-6.2 13.3-15.7 29.6-9.4 16.3-22 35.6l3.4 6q-2.1 2.1-6 3.9-3.7 1.6-8.2 2.6-4.4 0.9-8.5 0.9zm100.7-0.9q-6.1 0-9.1-3-3-3-3-9.5 0-3.6 0.7-9.8 0.9-6.2 2.7-15.7 1.8-9.6 4.6-23.4 3-14 7.3-32.9l-7.8-8.9q4.4-3.5 9.9-5.5 5.6-1.9 10.1-1.9 5.1 0 7.4 2.1 2.3 2.1 2.3 7.6 0 1.3-1.2 6.2-1.1 4.8-3 12.4-1.8 7.5-3.9 16.5-2 8.8-3.9 18.2-1.8 9.4-3 18.1-1.1 8.5-1.1 15.4 0 3.3 0.7 5.6 0.9 2.3 2.5 3.7-5.9 4.8-12.2 4.8zm15.7-125.6q-5.6 0-9-2.9-3.4-2.8-3.4-7.2 0-3.6 2-6.6 1.9-3 5.5-4.8 3.5-1.9 8.3-1.9 5.8 0 9 2.8 3.4 2.7 3.4 7.1 0 3.7-2.2 6.9-1.9 3-5.4 4.8-3.6 1.8-8.2 1.8zm61.5 125.6q-5.9 0-10.8-1.6-5-1.6-8-6.5-3-5-3-14.7 0-6.4 1.2-16.6 1.5-10.5 3.8-23.9 2.4-13.5 5.6-29.1 3.2-15.7 6.9-32.5l-7.8-8.9q4.5-3.5 10.1-5.5 5.9-2.1 10.3-2.1 5.1 0 7.2 2.3 2.2 2.1 2.2 7.4 0 5.9-3.6 18.6-3.3 12.8-7.2 29.8l1.7 0.8q6.8-13.4 16.7-20.7 9.9-7.4 21.8-7.4 9.7 0 16.8 5 7.2 4.7 11.3 13.6 4.1 8.8 4.1 20.9 0 15-6.1 27.9-6 13-16.9 22.7-10.8 9.7-25.2 15.2-14.3 5.3-31.1 5.3zm-4.5-11.5q13.3-0.5 24.6-4.9 11.4-4.6 19.7-12.2 8.3-7.8 12.9-17.9 4.8-10.3 4.8-22 0-12-5-18.7-4.9-6.8-13.9-6.8-8.2 0-16 5.9-7.6 5.8-13.8 16.8-6.2 11-9.7 26.2-3.6 15-3.6 33.6zm151.8 11.5q-18.8 0-29.4-11.5-10.6-11.5-10.6-31.7 0-14.7 4.8-26.9 4.8-12.4 13.4-21.4 8.7-9 20.4-14 11.7-5.1 25.5-5.1 14 0 21.7 6.7 8 6.6 8 18.6 0 12.6-9 21.6-9 8.9-26.2 13.5-17.2 4.6-41.8 4.7l2.1-9.9q26.4 0.2 40.9-7.8 14.7-8.1 14.7-22.6 0-6.2-3.7-9.9-3.5-3.7-9.7-3.7-8 0-15.1 4.4-7.1 4.4-12.5 12.4-5.4 7.8-8.5 18.2-3 10.4-3 22.3 0 14 5.3 22.1 5.3 8.2 14.5 8.2 11.5 0 18.7-7.3 7.3-7.2 8-19.3 6.7 0 10.4 2.5 3.9 2.5 3.9 8.1 0 7.1-5.6 13.5-5.7 6.4-15.4 10.4-9.6 3.9-21.8 3.9z"/>
			<g>
				<g>
					<path class="s1" d="m1003.6 156.3l-62 93.3-19.6-3.5 55.9-84.5zm-18.9 114q-6.6 0-13.1-0.9-6.4-0.9-14.9-3.2-8.3-2.4-20.7-6.9-5.1 5.2-9.2 7.5-4.1 2.1-8.8 2.1-4.8 0-8-3-3.2-3.2-3.2-7.8 0-7.4 6-12.2 6.2-5 15.6-4.8 5.1 0 12.4 1.8 7.3 1.8 15.2 4.2 8.2 2.3 15.6 4.1 7.6 1.8 13.1 1.8l19.3-10.5q2.5 3.7 3.3 6.4 1.1 2.7 1.1 5.1 0 4.6-3.2 8.4-3.2 3.7-8.5 5.8-5.3 2.1-12 2.1zm-16.5-105.1q-17 0-27.6-1.8-10.4-1.9-15.2-5.8-4.8-3.9-4.8-10.3 0-3.2 0.9-6.4 1.1-3.3 2.3-5.5 6.9 2.9 14.5 5.4 7.8 2.3 15.8 4.2 8.1 1.8 15.7 3 7.6 1.1 14.2 1.4 2.8-5.6 8-9.2 5.3-3.7 10.2-3.7 6.2 0 9.6 2.8 3.3 2.7 3.3 7.8 0 9.2-11.3 13.7-11.3 4.4-35.6 4.4zm95.1 104.2q-14.5 0-21.4-7-6.9-7.1-6.9-21.6 0-7.8 1.3-16.3 1.4-8.5 3.2-17 1.7-8.5 3-16.1 1.4-7.8 1.4-14.2 0-3.9-0.6-7.2-0.5-3.6-1.4-6.4 3.6-2.1 7.5-3.4 3.9-1.4 6.3-1.4 5.2 0 7.5 2.7 2.4 2.6 2.4 8.8 0 3.9-1.2 10.6-1.1 6.6-2.6 14.5-1.6 8-3.2 16-1.6 7.9-2.9 14.5-1 6.5-1 10.1 0 10.1 4.2 15.2 4.4 5.1 12.6 5.1 10.4 0 19.3-7.6 8.8-7.8 13.8-21.2l-1.3 26.9-6.1-3.2q-3.8 5.3-9.4 9.6-5.7 4-12.1 6.3-6.3 2.3-12.4 2.3zm47.5 0q-6 0-9-4-2.9-4.1-2.9-12.8 0-4.8 1.4-14 1.6-9.2 4.8-24.4 3.2-15.2 8.3-37.3l-7.2-10.7q2.5-2.1 5.8-3.7 3.6-1.7 7.3-2.6 3.7-1.1 6.9-1.1 5.3 0 7.4 2.3 2.3 2.1 2.3 7.4 0 1.3-1.2 6.2-1.1 4.8-2.9 12.4-1.7 7.5-3.8 16.5-2 8.8-3.9 18.2-1.8 9.4-3.1 18.1-1 8.5-1 15.4 0 6.7 3 9.4-5.3 4.7-12.2 4.7zm68.5 0q-6 0-9-3.5-3-3.5-3-11.2 0-3.7 1.2-12.2 1.4-8.5 3.5-19.8 2.3-11.3 5-23.4 2.8-12.2 5.7-22.8l-7.8-8.8q4.6-3.9 9-6.1 4.6-2.3 8.5-2.3 5.3 0 7.4 3.1 2.2 2.8 2.2 6.7 0 6-2.2 12.7-1.9 6.6-5.1 14.4l1.8 0.8q5.6-13.2 11.3-21.7 5.8-8.5 11.7-12.6 6-4.1 11.8-4.1 5.7 0 8.7 2.7 3 2.5 3 7.8 0 6-4.6 9.5-4.6 3.4-12 3.4-7.1 0-14 6.2-6.7 6.2-12.2 16.6-5.5 10.5-8.7 23.6-3.2 13.1-3.2 26.9 0 6.5 2.2 9.2-5.4 4.9-11.2 4.9zm87 0q-6 0-9-3-3-3-3-9.5 0-3.6 0.7-9.8 0.9-6.2 2.6-15.7 1.8-9.6 4.6-23.4 3-14 7.3-32.9l-7.8-8.9q4.4-3.5 9.9-5.4 5.7-2 10.1-2 5.1 0 7.4 2.1 2.3 2.2 2.3 7.6 0 1.3-1.2 6.2-1.1 4.8-3 12.4-1.8 7.5-3.9 16.5-2 8.8-3.9 18.2-1.8 9.4-3 18.1-1.1 8.5-1.1 15.4 0 3.3 0.7 5.6 0.9 2.3 2.5 3.8-5.8 4.7-12.2 4.7zm15.8-125.6q-5.7 0-9.1-2.9-3.3-2.8-3.3-7.2 0-3.6 1.9-6.6 2-3 5.5-4.8 3.5-1.9 8.3-1.9 5.9 0 9 2.8 3.4 2.7 3.4 7.1 0 3.7-2.1 6.9-2 3-5.5 4.8-3.5 1.8-8.1 1.8zm78.3 125.6q-19.3 0-30.4-11.3-11.2-11.3-11.2-31.5 0-14.5 5-26.9 5-12.4 13.6-21.4 8.9-9.2 20.4-14.4 11.7-5.1 24.9-5.1 11.2 0 17.6 3.7 6.5 3.6 6.5 9.9 0 5.4-4.2 9.1-4.1 3.5-10.3 3.5-6 0-11.5-2.8-5.5-2.9-9-9.9-8.9 3.9-16 12-7 8.1-11.1 19.3-4.1 11-4.1 24.1 0 13.9 5.1 21.9 5.4 8 14.6 8 7.6 0 13.2-3.7 5.9-3.9 9.2-10.3 3.6-6.4 3.9-14.3 6.8 0 10.5 2.6 3.9 2.5 3.9 8.2 0 7.9-5.5 14.6-5.5 6.8-14.7 10.8-9.2 3.9-20.4 3.9zm81.4 0q-6.4 0-9.4-3.2-2.9-3.3-2.9-9.3 0-3.7 1.3-12.1 1.2-8.3 3.2-19.6 2.1-11.5 4.8-25 2.6-13.6 5.3-27.8 2.8-14.3 5.4-28.1l-7.7-8.9q4.2-3.5 9.9-5.4 5.8-2.2 10.4-2.2 5 0 7.1 2.3 2.1 2.2 2.1 7.5 0 4.2-1.6 11.3-1.6 6.9-4.2 17.3-2.5 10.5-5.7 25.4l1.8 0.8q6.9-12.5 15-19.8 8.3-7.4 16.8-10.6 8.7-3.2 16.3-3.2 11.4 0 17 5.7 5.7 5.6 5.7 17.9 0 8.1-2 16.9-1.7 8.9-4.2 18.3-2.5 9.4-4.4 18.9-1.8 9.4-1.8 18.8 0 2.8 0.5 5.3 0.6 2.5 1.8 3.9-5.5 4.9-11.3 4.9-6.4 0-9.2-3.2-2.7-3.3-2.7-9.3 0-7.3 1.6-16.5 1.8-9.4 3.9-18.9 2.3-9.8 3.9-18.4 1.8-8.7 1.8-14.9 0-6.7-2.5-10.4-2.5-3.9-8.3-3.9-7.8 0-16.5 6-8.5 5.8-15.9 16.6-7.3 10.8-11.9 25.9-4.6 14.8-4.6 32.9 0 2.8 0.5 5.3 0.6 2.5 1.6 3.9-5.1 4.9-10.9 4.9z"/>
				</g>
			</g>
		</g>
		<g>
			<g id="eFjcStfEpxe9">
				<g>
					<path class="s2" d="m244.76 139.43l-7.33 25.6-6.85-25.67-23.08-8.1 23.16-7.61 7.09-25.89 7.09 25.96 23.08 7.83zm40.35-13.88l-3.55 12.95-3.91-12.98-11.42-4.19 11.45-3.81 4.04-12.67 3.42 12.7 11.42 3.92zm-114.28 140.34l143.18-152.61c1-1.37 2.5-2.19 4.23-2.19 2.24-0.26 4.48 0.58 6.21 2.51 0.74 0.57 1.73 1.67 3.22 3.05 2.71 2.78 5.69 6.09 7.9 9.42 1 1.66 1.49 3.04 1.48 4.41 0.24 2.77-0.52 5.24-2.02 6.88l-143.19 153.18c-1.25 1.37-2.75 1.92-4.49 2.18-2.24 0.27-4.48-0.57-6.2-2.51-0.74-0.82-1.74-1.66-3.21-3.31-2.73-2.5-5.71-5.82-7.67-9.42-0.99-1.66-1.48-3.32-1.73-4.7-0.22-2.76 0.53-4.95 2.28-6.88l0.01-0.01zm114.89-110.84l10.39 11.91 33.24-35.4-10.4-12.18zm-69.43 15.39l-3.29 12.67-3.43-12.7-11.42-4.19 11.46-3.82 3.55-12.94 3.17 12.97 11.91 3.93zm115.9-9.11l3.68 12.98 11.43 3.92-11.46 4.09-3.8 12.66-3.67-12.7-11.42-4.19 11.45-3.82z"/>
				</g>
			</g>
			<path class="s1" d="m138.7 316h10v22.7h-9.1q-36.3 0-48.7-11.6-12.2-11.7-12.2-46.6v-37.8q0-23.8-7.9-33-7.9-9.1-28.6-9.1h-8.9v-22.6h8.9q20.9 0 28.6-9 7.9-9.2 7.9-32.7v-37.9q0-34.9 12.2-46.4 12.4-11.7 48.7-11.7h9.1v22.6h-10q-20.5 0-26.8 6.9-6.3 6.9-6.3 29.2v39.2q0 24.8-6.7 36-6.5 11.2-22.6 15.1 16.2 4.3 22.8 15.5 6.5 11.2 6.5 35.9v39.1q0 22.3 6.3 29.3 6.3 6.9 26.8 6.9z"/>
			<path class="s1" d="m376.09 65.8h-9.9v-22.5h9q36 0 48.3 11.6 12.2 11.5 12.2 46.1v37.3q0 23.6 7.8 32.7 7.8 9.1 28.3 9.1h8.9v22.3h-8.9q-20.6 0-28.3 8.9-7.8 9.1-7.8 32.4v37.5q0 34.5-12.2 46-12.3 11.5-48.3 11.5h-9v-22.3h9.9q20.4 0 26.6-6.9 6.2-6.9 6.2-28.9v-38.8q0-24.5 6.7-35.6 6.5-11.1 22.4-15-16.1-4.3-22.6-15.4-6.5-11.1-6.5-35.4v-38.8q0-22-6.2-28.9-6.2-6.9-26.6-6.9z"/>
		</g>
	</g>
</svg>